<?xml version="1.0" encoding="utf-8"?>
<!-- Generator: Adobe Illustrator 24.0.1, SVG Export Plug-In . SVG Version: 6.00 Build 0)  -->
<svg version="1.1" id="Layer_1" xmlns="http://www.w3.org/2000/svg" xmlns:xlink="http://www.w3.org/1999/xlink" x="0px" y="0px"
	 viewBox="0 0 371 177" style="enable-background:new 0 0 371 177;" xml:space="preserve">
<style type="text/css">
	.st0{fill-rule:evenodd;clip-rule:evenodd;fill:#8F6DCA;}
	.st1{fill:#3C324E;}
	.st2{enable-background:new    ;}
	.st3{fill:#FFFFFF;}
	.st4{fill:#F9FAFC;}
</style>
<path id="Rectangle_2_copy_8" class="st0" d="M40,48.5L288,39l-15,98L50,118L40,48.5z"/>
<rect id="Rectangle_2_copy" x="119" y="113.5" class="st1" width="167" height="35"/>
<g class="st2">
	<path class="st3" d="M149,138.1v2.9h-10.8v-2.9h3.6v-9.5c0-0.2,0-0.5,0-0.7c0-0.2,0-0.5,0-0.7l-2.2,1.8c-0.2,0.1-0.4,0.2-0.6,0.3
		c-0.2,0-0.4,0-0.5,0s-0.3-0.1-0.4-0.2s-0.2-0.2-0.3-0.3l-1.3-1.7l5.9-4.9h3.3v16h3.3V138.1z"/>
	<path class="st3" d="M164.9,131.5c0,1.7-0.2,3.1-0.5,4.3c-0.4,1.2-0.8,2.2-1.5,3c-0.6,0.8-1.4,1.4-2.2,1.8
		c-0.9,0.4-1.8,0.6-2.8,0.6s-1.9-0.2-2.8-0.6c-0.9-0.4-1.6-1-2.2-1.8c-0.6-0.8-1.1-1.8-1.5-3s-0.5-2.6-0.5-4.3s0.2-3.1,0.5-4.3
		c0.4-1.2,0.8-2.2,1.5-3c0.6-0.8,1.4-1.4,2.2-1.8c0.9-0.4,1.8-0.6,2.8-0.6s1.9,0.2,2.8,0.6c0.9,0.4,1.6,1,2.2,1.8
		c0.6,0.8,1.1,1.8,1.5,3C164.7,128.4,164.9,129.8,164.9,131.5z M160.8,131.5c0-1.3-0.1-2.4-0.2-3.2c-0.2-0.8-0.4-1.5-0.7-2
		s-0.6-0.8-0.9-1c-0.3-0.2-0.7-0.3-1.1-0.3c-0.4,0-0.7,0.1-1,0.3c-0.3,0.2-0.6,0.5-0.9,1c-0.3,0.5-0.5,1.1-0.6,2
		c-0.2,0.8-0.2,1.9-0.2,3.2s0.1,2.4,0.2,3.2c0.2,0.8,0.4,1.5,0.6,2c0.3,0.5,0.6,0.8,0.9,1s0.7,0.3,1,0.3c0.4,0,0.7-0.1,1.1-0.3
		c0.3-0.2,0.7-0.5,0.9-1c0.3-0.5,0.5-1.1,0.7-2C160.7,133.9,160.8,132.8,160.8,131.5z"/>
	<path class="st3" d="M180,131.5c0,1.7-0.2,3.1-0.5,4.3c-0.4,1.2-0.8,2.2-1.5,3c-0.6,0.8-1.4,1.4-2.2,1.8c-0.9,0.4-1.8,0.6-2.8,0.6
		s-1.9-0.2-2.8-0.6c-0.9-0.4-1.6-1-2.2-1.8c-0.6-0.8-1.1-1.8-1.5-3s-0.5-2.6-0.5-4.3s0.2-3.1,0.5-4.3c0.4-1.2,0.8-2.2,1.5-3
		c0.6-0.8,1.4-1.4,2.2-1.8c0.9-0.4,1.8-0.6,2.8-0.6s1.9,0.2,2.8,0.6c0.9,0.4,1.6,1,2.2,1.8c0.6,0.8,1.1,1.8,1.5,3
		C179.8,128.4,180,129.8,180,131.5z M175.8,131.5c0-1.3-0.1-2.4-0.2-3.2c-0.2-0.8-0.4-1.5-0.7-2s-0.6-0.8-0.9-1
		c-0.3-0.2-0.7-0.3-1.1-0.3c-0.4,0-0.7,0.1-1,0.3c-0.3,0.2-0.6,0.5-0.9,1c-0.3,0.5-0.5,1.1-0.6,2c-0.2,0.8-0.2,1.9-0.2,3.2
		s0.1,2.4,0.2,3.2c0.2,0.8,0.4,1.5,0.6,2c0.3,0.5,0.6,0.8,0.9,1s0.7,0.3,1,0.3c0.4,0,0.7-0.1,1.1-0.3c0.3-0.2,0.7-0.5,0.9-1
		c0.3-0.5,0.5-1.1,0.7-2C175.7,133.9,175.8,132.8,175.8,131.5z"/>
	<path class="st3" d="M190.4,126.6c0,0.7-0.1,1.3-0.4,1.9c-0.3,0.6-0.6,1.1-1,1.5s-0.9,0.7-1.4,1c-0.5,0.2-1.1,0.3-1.7,0.3
		c-0.7,0-1.3-0.1-1.8-0.3s-1-0.5-1.4-1c-0.4-0.4-0.7-0.9-0.9-1.5s-0.3-1.2-0.3-1.9c0-0.7,0.1-1.4,0.3-2s0.5-1.1,0.9-1.5
		s0.9-0.7,1.4-1s1.2-0.3,1.8-0.3c0.7,0,1.3,0.1,1.8,0.3s1,0.6,1.4,1s0.7,0.9,0.9,1.5C190.3,125.3,190.4,125.9,190.4,126.6z
		 M196.4,122.6c0.1-0.1,0.3-0.3,0.5-0.4s0.5-0.2,0.8-0.2h2.9l-14.3,18.3c-0.1,0.2-0.3,0.3-0.5,0.4c-0.2,0.1-0.4,0.2-0.7,0.2h-3
		L196.4,122.6z M187.3,126.6c0-0.4,0-0.8-0.1-1.1s-0.2-0.5-0.3-0.7s-0.3-0.3-0.5-0.4s-0.4-0.1-0.6-0.1c-0.2,0-0.4,0-0.6,0.1
		c-0.2,0.1-0.3,0.2-0.4,0.4s-0.2,0.4-0.3,0.7s-0.1,0.7-0.1,1.1s0,0.8,0.1,1s0.2,0.5,0.3,0.7s0.3,0.3,0.4,0.4
		c0.2,0.1,0.4,0.1,0.6,0.1c0.2,0,0.4,0,0.6-0.1c0.2-0.1,0.3-0.2,0.5-0.4s0.2-0.4,0.3-0.7S187.3,127,187.3,126.6z M201.3,136.5
		c0,0.7-0.1,1.3-0.4,1.9c-0.3,0.6-0.6,1.1-1,1.5s-0.9,0.7-1.4,1c-0.5,0.2-1.1,0.3-1.7,0.3c-0.7,0-1.3-0.1-1.8-0.3s-1-0.5-1.4-1
		s-0.7-0.9-0.9-1.5s-0.3-1.2-0.3-1.9s0.1-1.4,0.3-2s0.5-1.1,0.9-1.5s0.9-0.7,1.4-1s1.2-0.3,1.8-0.3c0.7,0,1.3,0.1,1.8,0.3
		c0.6,0.2,1,0.6,1.4,1s0.7,0.9,0.9,1.5C201.2,135.2,201.3,135.8,201.3,136.5z M198.2,136.5c0-0.4,0-0.8-0.1-1.1s-0.2-0.5-0.3-0.7
		s-0.3-0.3-0.5-0.4c-0.2-0.1-0.4-0.1-0.6-0.1c-0.2,0-0.4,0-0.6,0.1c-0.2,0.1-0.3,0.2-0.4,0.4c-0.1,0.2-0.2,0.4-0.3,0.7
		s-0.1,0.7-0.1,1.1c0,0.4,0,0.8,0.1,1s0.2,0.5,0.3,0.7s0.3,0.3,0.4,0.4c0.2,0.1,0.4,0.1,0.6,0.1c0.2,0,0.4,0,0.6-0.1
		c0.2-0.1,0.3-0.2,0.5-0.4s0.2-0.4,0.3-0.7C198.2,137.3,198.2,136.9,198.2,136.5z"/>
	<path class="st3" d="M214.4,125.4v4.8h6.5v3.4h-6.5v7.4H210v-19h12.2v3.4H214.4z"/>
	<path class="st3" d="M240.2,141h-4c-0.7,0-1.3-0.3-1.6-0.8l-3.1-5.5c-0.1-0.2-0.3-0.4-0.5-0.5s-0.4-0.2-0.8-0.2h-1.1v7h-4.4v-19
		h6.2c1.4,0,2.5,0.1,3.5,0.4s1.8,0.7,2.4,1.2s1.1,1.1,1.3,1.8c0.3,0.7,0.4,1.4,0.4,2.2c0,0.6-0.1,1.2-0.2,1.7
		c-0.2,0.5-0.4,1-0.7,1.5s-0.7,0.9-1.2,1.2c-0.5,0.4-1,0.7-1.6,0.9c0.3,0.1,0.6,0.3,0.8,0.6c0.3,0.2,0.5,0.5,0.7,0.8L240.2,141z
		 M230.9,130.9c0.6,0,1.1-0.1,1.5-0.2c0.4-0.2,0.8-0.4,1-0.6c0.3-0.3,0.5-0.6,0.6-0.9s0.2-0.7,0.2-1.2c0-0.8-0.3-1.5-0.8-1.9
		c-0.5-0.5-1.4-0.7-2.5-0.7h-1.8v5.6h1.8V130.9z"/>
	<path class="st3" d="M246.2,125.4v4.4h5.9v3.2h-5.9v4.5h7.8v3.4h-12.2V122H254v3.4H246.2z"/>
	<path class="st3" d="M261.1,125.4v4.4h5.9v3.2h-5.9v4.5h7.8v3.4h-12.2V122h12.2v3.4H261.1z"/>
</g>
<g class="st2">
	<path class="st4" d="M71.1,81.7h8v9.6c-1.2,0.8-2.4,1.5-3.7,1.8c-1.3,0.4-2.7,0.6-4.1,0.6c-1.9,0-3.6-0.3-5.1-0.9s-2.8-1.4-3.9-2.4
		s-1.9-2.3-2.5-3.7c-0.6-1.4-0.9-2.9-0.9-4.6s0.3-3.2,0.8-4.7c0.6-1.4,1.4-2.6,2.4-3.7c1-1,2.3-1.8,3.8-2.4s3.1-0.9,4.9-0.9
		c0.9,0,1.8,0.1,2.7,0.2c0.8,0.2,1.6,0.4,2.3,0.6c0.7,0.3,1.3,0.6,1.9,1s1.1,0.8,1.6,1.2l-1.5,2.3c-0.2,0.4-0.5,0.6-0.9,0.7
		s-0.8,0-1.2-0.3c-0.4-0.2-0.8-0.5-1.2-0.6c-0.4-0.2-0.7-0.3-1.1-0.4c-0.4,0-0.8-0.1-1.3-0.1c-0.4-0.1-0.9-0.1-1.4-0.1
		c-1,0-1.9,0.2-2.7,0.5c-0.8,0.3-1.5,0.8-2,1.5c-0.6,0.6-1,1.4-1.3,2.3s-0.5,1.9-0.5,3c0,1.2,0.2,2.3,0.5,3.2
		c0.3,0.9,0.8,1.7,1.4,2.4c0.6,0.6,1.3,1.1,2.2,1.5c0.8,0.3,1.8,0.5,2.8,0.5c0.6,0,1.2-0.1,1.7-0.2s1-0.3,1.5-0.5v-3.4h-2.2
		c-0.3,0-0.6-0.1-0.8-0.3C71.1,85.2,71,85,71,84.7v-3H71.1z"/>
	<path class="st4" d="M88,74.8v5.3h7.1V84H88v5.4h9.3v4H82.7V70.8h14.6v4H88z"/>
	<path class="st4" d="M116.7,75h-6.4v18.5h-5.2V75h-6.4v-4.2h18V75z"/>
</g>
<g>
	<path class="st3" d="M181.3,84.3h-4.7V58.9h4.6v9.6c0.5-0.8,1.3-1.5,2.3-2.1c1-0.5,2.2-0.8,3.4-0.8c2,0,3.6,0.7,5,2
		s2.1,3.2,2.1,5.6v11.1h-4.7v-9.9c0-1.4-0.3-2.5-1-3.3s-1.6-1.2-2.8-1.2s-2.3,0.4-3,1.3c-0.8,0.9-1.2,2-1.2,3.3L181.3,84.3
		L181.3,84.3z"/>
	<path class="st3" d="M203.4,61.2c0,0.8-0.3,1.5-0.8,2.1c-0.6,0.6-1.2,0.8-2.1,0.8c-0.8,0-1.5-0.3-2.1-0.8s-0.8-1.2-0.8-2.1
		c0-0.8,0.3-1.5,0.8-2c0.6-0.6,1.2-0.8,2.1-0.8c0.8,0,1.5,0.3,2.1,0.8C203.1,59.7,203.4,60.3,203.4,61.2z M202.8,66.1v18.2h-4.7
		V66.1H202.8z"/>
	<path class="st3" d="M217.3,65.6c2.6,0,4.7,0.9,6.5,2.8c1.7,1.8,2.6,4.1,2.6,6.8s-0.9,5-2.6,6.8c-1.7,1.8-3.9,2.7-6.5,2.7
		c-2.3,0-4.2-0.9-5.7-2.7v2.3H207V58.9h4.7v9.3C213.2,66.5,215.1,65.6,217.3,65.6z M211.5,75.2c0,1.4,0.5,2.7,1.4,3.7
		s2.1,1.5,3.6,1.5s2.7-0.5,3.6-1.5c0.9-1,1.4-2.3,1.4-3.7s-0.5-2.7-1.4-3.7S218,70,216.5,70s-2.7,0.5-3.6,1.5
		C212,72.5,211.5,73.7,211.5,75.2z"/>
	<path class="st3" d="M228.7,75.2c0-2.7,0.9-5,2.7-6.8c1.8-1.9,4.2-2.8,7-2.8s5.2,0.9,7,2.8c1.8,1.8,2.7,4.1,2.7,6.8
		c0,2.7-0.9,5-2.7,6.8s-4.2,2.8-7,2.8s-5.2-0.9-7-2.8C229.6,80.2,228.7,77.9,228.7,75.2z M234.8,78.9c1,1,2.2,1.5,3.6,1.5
		c1.4,0,2.6-0.5,3.6-1.5s1.5-2.3,1.5-3.7c0-1.4-0.5-2.6-1.5-3.7c-1-1-2.2-1.5-3.6-1.5c-1.4,0-2.7,0.5-3.6,1.5c-1,1-1.4,2.2-1.4,3.7
		C233.4,76.6,233.9,77.9,234.8,78.9z"/>
	<path class="st3" d="M260.7,75.2l5.8,9.2h-5.4l-3.5-6l-3.6,6h-5.4l6-9.3l-5.4-8.9h5.4l3.1,5.6l3.3-5.6h5.3L260.7,75.2z"/>
</g>
<g>
	<path class="st3" d="M178.4,104.1c-0.8,0-1.6-0.2-2.2-0.6c-0.7-0.4-1.2-1-1.5-1.8l0.7-0.4c0.7,1.3,1.7,2,3.1,2c0.8,0,1.5-0.2,2-0.7
		s0.8-1,0.8-1.7c0-0.5-0.1-0.8-0.4-1.1c-0.3-0.3-0.7-0.6-1.2-0.8c-0.1-0.1-0.6-0.3-1.3-0.5c-0.5-0.2-0.9-0.4-1.2-0.5
		c-1.2-0.6-1.8-1.4-1.8-2.5c0-0.8,0.3-1.5,0.9-2s1.4-0.8,2.4-0.8c1.4,0,2.5,0.6,3.2,1.7l-0.6,0.4c-0.5-0.9-1.4-1.3-2.6-1.3
		c-0.8,0-1.4,0.2-1.8,0.6c-0.4,0.4-0.7,0.9-0.7,1.5c0,0.8,0.5,1.4,1.4,1.9c0.3,0.1,0.7,0.3,1.3,0.5s1,0.4,1.4,0.6
		c0.7,0.3,1.2,0.7,1.5,1c0.3,0.4,0.5,0.9,0.5,1.5c0,0.9-0.3,1.7-1,2.3C180.3,103.8,179.4,104.1,178.4,104.1z"/>
	<path class="st3" d="M189.3,104.1c-1.6,0-2.9-0.5-3.9-1.6s-1.5-2.4-1.5-4.1s0.5-3,1.6-4.1s2.4-1.6,4-1.6c1.1,0,2.1,0.2,2.9,0.7
		c0.9,0.5,1.5,1.2,1.9,2l-0.7,0.4c-0.4-0.7-0.9-1.3-1.6-1.8c-0.7-0.4-1.6-0.7-2.5-0.7c-1.4,0-2.5,0.5-3.4,1.4s-1.3,2.1-1.3,3.6
		s0.4,2.7,1.3,3.6s2,1.4,3.3,1.4c0.9,0,1.8-0.2,2.5-0.7c0.8-0.4,1.3-1,1.7-1.8l0.7,0.4c-0.4,0.9-1.1,1.5-2,2
		C191.3,103.8,190.3,104.1,189.3,104.1z"/>
	<path class="st3" d="M197.5,103.8h-0.8V88.5h0.8v6.6c0.6-1.6,2-2.5,4-2.5c1.2,0,2.3,0.4,3.1,1.2c0.8,0.8,1.2,1.9,1.2,3.4v6.6H205
		v-6.6c0-1.2-0.3-2.1-0.9-2.8c-0.6-0.7-1.5-1-2.6-1c-0.4,0-0.9,0.1-1.3,0.2c-0.4,0.1-0.8,0.4-1.3,0.7c-0.4,0.3-0.8,0.7-1,1.3
		c-0.3,0.6-0.4,1.3-0.4,2.1V103.8z"/>
	<path class="st3" d="M218.6,97.7c0,0.1,0,0.5-0.1,1H209c0.1,1.4,0.5,2.6,1.4,3.4c0.8,0.8,2,1.3,3.4,1.3c0.7,0,1.5-0.1,2.2-0.4
		c0.7-0.2,1.4-0.6,1.8-1l0.4,0.6c-0.5,0.4-1.2,0.8-2,1.1c-0.8,0.3-1.7,0.4-2.5,0.4c-1.8,0-3.2-0.6-4.2-1.7s-1.4-2.5-1.4-4
		c0-1.6,0.5-3,1.5-4.1s2.3-1.6,3.9-1.6c1.4,0,2.6,0.5,3.5,1.4C218.2,94.9,218.6,96.1,218.6,97.7z M213.7,93.4
		c-1.3,0-2.3,0.4-3.2,1.2c-0.8,0.8-1.3,1.9-1.4,3.3h8.7c0-1.4-0.4-2.5-1.1-3.3C215.9,93.8,214.9,93.4,213.7,93.4z"/>
	<path class="st3" d="M230.5,95.5v-7h0.8v15.3h-0.8v-2.6c-0.4,0.9-1.1,1.6-1.9,2.1s-1.7,0.8-2.8,0.8c-1.5,0-2.8-0.5-3.8-1.6
		s-1.5-2.5-1.5-4.1s0.5-3,1.5-4c1-1.1,2.3-1.6,3.8-1.6c1,0,1.9,0.3,2.7,0.8S230.1,94.6,230.5,95.5z M225.9,103.3
		c1.4,0,2.5-0.5,3.3-1.5c0.9-1,1.3-2.2,1.3-3.6s-0.4-2.5-1.3-3.5c-0.9-0.9-2-1.4-3.3-1.4s-2.4,0.5-3.3,1.4c-0.9,1-1.3,2.1-1.3,3.5
		s0.4,2.6,1.3,3.5C223.5,102.9,224.5,103.3,225.9,103.3z"/>
	<path class="st3" d="M239,104.1c-1.3,0-2.4-0.4-3.2-1.2c-0.8-0.8-1.2-1.9-1.2-3.2V93h0.8v6.7c0,1.1,0.3,2,0.9,2.7s1.5,1,2.6,1
		s2-0.3,2.6-1s0.9-1.6,0.9-2.7V93h0.8v6.7c0,1.4-0.4,2.4-1.1,3.2S240.3,104.1,239,104.1z"/>
	<path class="st3" d="M247.4,88.5v15.3h-0.8V88.5H247.4z"/>
	<path class="st3" d="M260.5,97.7c0,0.1,0,0.5-0.1,1h-9.5c0.1,1.4,0.5,2.6,1.4,3.4c0.8,0.8,2,1.3,3.4,1.3c0.7,0,1.5-0.1,2.2-0.4
		c0.7-0.2,1.4-0.6,1.8-1l0.4,0.6c-0.5,0.4-1.2,0.8-2,1.1c-0.8,0.3-1.7,0.4-2.5,0.4c-1.8,0-3.2-0.6-4.2-1.7s-1.4-2.5-1.4-4
		c0-1.6,0.5-3,1.5-4.1s2.3-1.6,3.9-1.6c1.4,0,2.6,0.5,3.5,1.4C260,94.9,260.5,96.1,260.5,97.7z M255.5,93.4c-1.3,0-2.3,0.4-3.2,1.2
		c-0.8,0.8-1.3,1.9-1.4,3.3h8.7c0-1.4-0.4-2.5-1.1-3.3C257.7,93.8,256.7,93.4,255.5,93.4z"/>
	<path class="st3" d="M263.9,103.8h-0.8V92.9h0.8v1.8c0.6-1.4,1.7-2.1,3.2-2.1c0.5,0,1,0.1,1.4,0.2l-0.1,0.7
		c-0.4-0.1-0.8-0.2-1.2-0.2c-1.1,0-1.9,0.4-2.4,1.2c-0.5,0.8-0.8,1.7-0.8,2.8v6.5H263.9z"/>
	<path class="st3" d="M269.2,104.1c-0.3,0-0.6-0.1-0.7-0.4s-0.1-0.5,0-0.8s0.4-0.4,0.7-0.4c0.2,0,0.4,0.1,0.6,0.2s0.2,0.3,0.2,0.5
		s-0.1,0.4-0.2,0.6C269.6,104.1,269.4,104.1,269.2,104.1z"/>
</g>
<g>
	<circle class="st3" cx="162.3" cy="78.7" r="2.6"/>
	<circle class="st3" cx="156.2" cy="78.7" r="2.6"/>
	<circle class="st3" cx="150.1" cy="78.7" r="2.6"/>
	<circle class="st3" cx="162.3" cy="85.6" r="2.6"/>
	<circle class="st3" cx="156.2" cy="85.6" r="2.6"/>
	<circle class="st3" cx="150.1" cy="85.6" r="2.6"/>
	<circle class="st3" cx="143.9" cy="85.6" r="2.6"/>
	<circle class="st3" cx="137.7" cy="85.6" r="2.6"/>
	<circle class="st3" cx="156.2" cy="92.5" r="2.6"/>
	<circle class="st3" cx="150.1" cy="92.5" r="2.6"/>
	<circle class="st3" cx="143.9" cy="92.5" r="2.6"/>
	<circle class="st3" cx="137.7" cy="92.5" r="2.6"/>
	<path class="st3" d="M162.8,65.7h-0.2v3.6c-0.1,1.6-1.3,2.7-2.9,2.7l0,0c-1.6,0-2.8-1.1-2.9-2.7v-3.6h-13.4v3.6
		c-0.1,1.6-1.3,2.7-2.9,2.7l0,0c-1.6,0-2.8-1.1-2.9-2.7v-3.6H137c-3.1,0-5.6,2.5-5.6,5.6v21.6c0,3.1,2.5,5.6,5.6,5.6h25.8
		c3.1,0,5.6-2.5,5.6-5.6V71.3C168.4,68.2,165.9,65.7,162.8,65.7z M165.9,93.7c0,1.4-1.1,2.6-2.6,2.6h-26.9c-1.4,0-2.6-1.1-2.6-2.6
		V74.8h32v18.9H165.9z"/>
	<path class="st3" d="M137.9,69v-4.9c0-1.4,1.1-2.5,2.5-2.5l0,0c1.4,0,2.5,1.1,2.5,2.5V69c0,1.4-1.1,2.5-2.5,2.5l0,0
		C139.1,71.5,137.9,70.4,137.9,69z"/>
	<path class="st3" d="M157.2,69v-4.9c0-1.4,1.1-2.5,2.5-2.5l0,0c1.4,0,2.5,1.1,2.5,2.5V69c0,1.4-1.1,2.5-2.5,2.5l0,0
		C158.4,71.5,157.2,70.4,157.2,69z"/>
</g>
</svg>
