<?xml version="1.0" encoding="utf-8"?>
<!-- Generator: Adobe Illustrator 24.0.1, SVG Export Plug-In . SVG Version: 6.00 Build 0)  -->
<svg version="1.1" id="Layer_2" xmlns="http://www.w3.org/2000/svg" xmlns:xlink="http://www.w3.org/1999/xlink" x="0px" y="0px"
	 viewBox="0 0 101 22" style="enable-background:new 0 0 101 22;" xml:space="preserve">
<style type="text/css">
	.st0{fill:#31383F;}
</style>
<g>
	<g>
		<g>
			<path class="st0" d="M18,16h-1.5V7.8h1.5v3.1c0.2-0.3,0.4-0.5,0.7-0.7C19,10,19.4,10,19.8,10c0.6,0,1.2,0.2,1.6,0.6
				c0.4,0.4,0.7,1,0.7,1.8V16h-1.5v-3.2c0-0.5-0.1-0.8-0.3-1.1c-0.2-0.3-0.5-0.4-0.9-0.4c-0.4,0-0.7,0.1-1,0.4
				c-0.2,0.3-0.4,0.6-0.4,1.1V16z"/>
			<path class="st0" d="M25.1,8.5c0,0.3-0.1,0.5-0.3,0.7c-0.2,0.2-0.4,0.3-0.7,0.3c-0.3,0-0.5-0.1-0.7-0.3c-0.2-0.2-0.3-0.4-0.3-0.7
				c0-0.3,0.1-0.5,0.3-0.7c0.2-0.2,0.4-0.3,0.7-0.3c0.3,0,0.5,0.1,0.7,0.3C25.1,8,25.1,8.3,25.1,8.5z M25,10.1V16h-1.5v-5.9H25z"/>
			<path class="st0" d="M29.7,10c0.8,0,1.5,0.3,2.1,0.9c0.6,0.6,0.8,1.3,0.8,2.2c0,0.9-0.3,1.6-0.8,2.2c-0.6,0.6-1.3,0.9-2.1,0.9
				c-0.7,0-1.4-0.3-1.8-0.9V16h-1.5V7.8h1.5v3C28.3,10.2,28.9,10,29.7,10z M27.8,13.1c0,0.5,0.2,0.9,0.5,1.2
				c0.3,0.3,0.7,0.5,1.2,0.5s0.9-0.2,1.2-0.5c0.3-0.3,0.5-0.7,0.5-1.2c0-0.5-0.2-0.9-0.5-1.2c-0.3-0.3-0.7-0.5-1.2-0.5
				s-0.9,0.2-1.2,0.5C27.9,12.2,27.8,12.6,27.8,13.1z"/>
			<path class="st0" d="M33.4,13.1c0-0.9,0.3-1.6,0.9-2.2c0.6-0.6,1.4-0.9,2.3-0.9c0.9,0,1.7,0.3,2.3,0.9c0.6,0.6,0.9,1.3,0.9,2.2
				c0,0.9-0.3,1.6-0.9,2.2c-0.6,0.6-1.4,0.9-2.3,0.9c-0.9,0-1.7-0.3-2.3-0.9C33.6,14.7,33.4,13.9,33.4,13.1z M35.3,14.3
				c0.3,0.3,0.7,0.5,1.2,0.5c0.5,0,0.8-0.2,1.2-0.5c0.3-0.3,0.5-0.7,0.5-1.2c0-0.5-0.2-0.9-0.5-1.2c-0.3-0.3-0.7-0.5-1.2-0.5
				c-0.5,0-0.9,0.2-1.2,0.5c-0.3,0.3-0.5,0.7-0.5,1.2C34.9,13.5,35,13.9,35.3,14.3z"/>
			<path class="st0" d="M43.7,13.1l1.9,3h-1.8l-1.1-1.9L41.6,16h-1.8l2-3L40,10.1h1.7l1,1.8l1.1-1.8h1.7L43.7,13.1z"/>
		</g>
		<g>
			<path class="st0" d="M50.5,16.2c-0.4,0-0.8-0.1-1.2-0.3c-0.4-0.2-0.6-0.5-0.8-0.9l0.4-0.2c0.3,0.7,0.9,1.1,1.6,1.1
				c0.4,0,0.8-0.1,1.1-0.4c0.3-0.2,0.4-0.5,0.4-0.9c0-0.2-0.1-0.4-0.2-0.6c-0.1-0.2-0.4-0.3-0.7-0.4c-0.1,0-0.3-0.1-0.7-0.3
				c-0.3-0.1-0.5-0.2-0.7-0.3c-0.6-0.3-1-0.8-1-1.3c0-0.4,0.2-0.8,0.5-1.1c0.3-0.3,0.7-0.4,1.3-0.4c0.8,0,1.3,0.3,1.7,0.9l-0.3,0.2
				c-0.3-0.5-0.7-0.7-1.4-0.7c-0.4,0-0.7,0.1-1,0.3c-0.2,0.2-0.4,0.5-0.4,0.8c0,0.4,0.2,0.8,0.7,1c0.2,0.1,0.4,0.2,0.7,0.3
				c0.3,0.1,0.5,0.2,0.7,0.3c0.4,0.2,0.6,0.3,0.8,0.6c0.2,0.2,0.2,0.5,0.2,0.8c0,0.5-0.2,0.9-0.5,1.2C51.5,16,51,16.2,50.5,16.2z"/>
			<path class="st0" d="M56.3,16.2c-0.8,0-1.5-0.3-2.1-0.8c-0.5-0.6-0.8-1.3-0.8-2.2c0-0.9,0.3-1.6,0.8-2.2c0.6-0.6,1.3-0.9,2.1-0.9
				c0.6,0,1.1,0.1,1.6,0.4c0.5,0.3,0.8,0.6,1,1.1l-0.4,0.2c-0.2-0.4-0.5-0.7-0.9-0.9c-0.4-0.2-0.8-0.3-1.3-0.3
				c-0.7,0-1.3,0.2-1.8,0.7c-0.5,0.5-0.7,1.1-0.7,1.9c0,0.8,0.2,1.4,0.7,1.9c0.5,0.5,1.1,0.7,1.8,0.7c0.5,0,0.9-0.1,1.3-0.4
				c0.4-0.2,0.7-0.5,0.9-0.9l0.3,0.2c-0.2,0.5-0.6,0.8-1.1,1.1C57.4,16,56.8,16.2,56.3,16.2z"/>
			<path class="st0" d="M60.6,16h-0.4V7.9h0.4v3.5c0.3-0.9,1-1.3,2.1-1.3c0.7,0,1.2,0.2,1.6,0.6c0.4,0.4,0.7,1,0.7,1.8V16h-0.4v-3.5
				c0-0.6-0.2-1.1-0.5-1.5c-0.3-0.4-0.8-0.6-1.4-0.6c-0.2,0-0.5,0-0.7,0.1c-0.2,0.1-0.5,0.2-0.7,0.3c-0.2,0.2-0.4,0.4-0.5,0.7
				c-0.1,0.3-0.2,0.7-0.2,1.1V16z"/>
			<path class="st0" d="M71.9,12.8c0,0.1,0,0.2,0,0.5h-5c0,0.8,0.3,1.4,0.7,1.8c0.5,0.4,1.1,0.7,1.8,0.7c0.4,0,0.8-0.1,1.2-0.2
				c0.4-0.1,0.7-0.3,1-0.5l0.2,0.3c-0.3,0.2-0.6,0.4-1.1,0.6c-0.4,0.1-0.9,0.2-1.3,0.2c-1,0-1.7-0.3-2.2-0.9
				c-0.5-0.6-0.8-1.3-0.8-2.1c0-0.9,0.3-1.6,0.8-2.2c0.5-0.6,1.2-0.9,2.1-0.9c0.8,0,1.4,0.2,1.9,0.7C71.6,11.3,71.9,11.9,71.9,12.8z
				 M69.2,10.5c-0.7,0-1.2,0.2-1.7,0.6c-0.4,0.4-0.7,1-0.7,1.7h4.6c0-0.7-0.2-1.3-0.6-1.7C70.4,10.7,69.9,10.5,69.2,10.5z"/>
			<path class="st0" d="M78.2,11.6V7.9h0.4V16h-0.4v-1.4c-0.2,0.5-0.6,0.9-1,1.1c-0.4,0.3-0.9,0.4-1.5,0.4c-0.8,0-1.5-0.3-2-0.9
				c-0.5-0.6-0.8-1.3-0.8-2.2c0-0.9,0.3-1.6,0.8-2.2c0.5-0.6,1.2-0.9,2-0.9c0.5,0,1,0.1,1.5,0.4C77.6,10.8,78,11.1,78.2,11.6z
				 M75.7,15.8c0.7,0,1.3-0.3,1.8-0.8c0.5-0.5,0.7-1.2,0.7-1.9c0-0.7-0.2-1.3-0.7-1.8c-0.5-0.5-1.1-0.8-1.8-0.8
				c-0.7,0-1.3,0.3-1.7,0.8c-0.5,0.5-0.7,1.1-0.7,1.9c0,0.7,0.2,1.4,0.7,1.9C74.4,15.5,75,15.8,75.7,15.8z"/>
			<path class="st0" d="M82.7,16.2c-0.7,0-1.3-0.2-1.7-0.6c-0.4-0.4-0.6-1-0.6-1.7v-3.6h0.4v3.6c0,0.6,0.2,1.1,0.5,1.4
				c0.3,0.4,0.8,0.5,1.4,0.5c0.6,0,1-0.2,1.4-0.5c0.3-0.3,0.5-0.8,0.5-1.5v-3.5H85v3.6c0,0.7-0.2,1.3-0.6,1.7
				C84,16,83.4,16.2,82.7,16.2z"/>
			<path class="st0" d="M87.2,7.9V16h-0.4V7.9H87.2z"/>
			<path class="st0" d="M94.1,12.8c0,0.1,0,0.2,0,0.5h-5c0,0.8,0.3,1.4,0.7,1.8c0.5,0.4,1.1,0.7,1.8,0.7c0.4,0,0.8-0.1,1.2-0.2
				c0.4-0.1,0.7-0.3,1-0.5l0.2,0.3c-0.3,0.2-0.6,0.4-1.1,0.6c-0.4,0.1-0.9,0.2-1.3,0.2c-1,0-1.7-0.3-2.2-0.9
				c-0.5-0.6-0.8-1.3-0.8-2.1c0-0.9,0.3-1.6,0.8-2.2c0.5-0.6,1.2-0.9,2.1-0.9c0.8,0,1.4,0.2,1.9,0.7C93.9,11.3,94.1,11.9,94.1,12.8z
				 M91.5,10.5c-0.7,0-1.2,0.2-1.7,0.6c-0.4,0.4-0.7,1-0.7,1.7h4.6c0-0.7-0.2-1.3-0.6-1.7C92.7,10.7,92.1,10.5,91.5,10.5z"/>
			<path class="st0" d="M95.9,16h-0.4v-5.8h0.4v1c0.3-0.7,0.9-1.1,1.7-1.1c0.3,0,0.5,0,0.7,0.1l-0.1,0.4c-0.2-0.1-0.4-0.1-0.6-0.1
				c-0.6,0-1,0.2-1.3,0.6c-0.3,0.4-0.4,0.9-0.4,1.5V16z"/>
			<path class="st0" d="M98.8,16.2c-0.2,0-0.3-0.1-0.4-0.2c-0.1-0.1-0.1-0.3,0-0.4c0.1-0.1,0.2-0.2,0.4-0.2c0.1,0,0.2,0,0.3,0.1
				c0.1,0.1,0.1,0.2,0.1,0.3c0,0.1,0,0.2-0.1,0.3C99,16.2,98.9,16.2,98.8,16.2z"/>
		</g>
		<g>
			<g>
				<circle class="st0" cx="11.8" cy="10.9" r="0.8"/>
			</g>
			<g>
				<circle class="st0" cx="9.9" cy="10.9" r="0.8"/>
			</g>
			<g>
				<circle class="st0" cx="7.9" cy="10.9" r="0.8"/>
			</g>
			<g>
				<circle class="st0" cx="11.8" cy="13.2" r="0.8"/>
			</g>
			<g>
				<circle class="st0" cx="9.9" cy="13.2" r="0.8"/>
			</g>
			<g>
				<circle class="st0" cx="7.9" cy="13.2" r="0.8"/>
			</g>
			<g>
				<circle class="st0" cx="5.9" cy="13.2" r="0.8"/>
			</g>
			<g>
				<circle class="st0" cx="3.9" cy="13.2" r="0.8"/>
			</g>
			<g>
				<circle class="st0" cx="9.9" cy="15.4" r="0.8"/>
			</g>
			<g>
				<circle class="st0" cx="7.9" cy="15.4" r="0.8"/>
			</g>
			<g>
				<circle class="st0" cx="5.9" cy="15.4" r="0.8"/>
			</g>
			<g>
				<circle class="st0" cx="3.9" cy="15.4" r="0.8"/>
			</g>
			<path class="st0" d="M12,6.7L12,6.7l-0.1,1.2c0,0.5-0.4,0.9-0.9,0.9h0c-0.5,0-0.9-0.4-0.9-0.9V6.7H5.7v1.2c0,0.5-0.4,0.9-0.9,0.9
				h0c-0.5,0-0.9-0.4-0.9-0.9V6.7H3.7c-1,0-1.8,0.8-1.8,1.8v7c0,1,0.8,1.8,1.8,1.8H12c1,0,1.8-0.8,1.8-1.8v-7
				C13.8,7.6,13,6.7,12,6.7z M13,15.8c0,0.5-0.4,0.8-0.8,0.8H3.5c-0.5,0-0.8-0.4-0.8-0.8V9.7H13V15.8z"/>
			<g>
				<path class="st0" d="M3.9,7.8V6.2c0-0.5,0.4-0.8,0.8-0.8h0c0.5,0,0.8,0.4,0.8,0.8v1.6c0,0.5-0.4,0.8-0.8,0.8h0
					C4.3,8.6,3.9,8.3,3.9,7.8z"/>
			</g>
			<g>
				<path class="st0" d="M10.2,7.8V6.2c0-0.5,0.4-0.8,0.8-0.8h0c0.5,0,0.8,0.4,0.8,0.8v1.6c0,0.5-0.4,0.8-0.8,0.8h0
					C10.6,8.6,10.2,8.3,10.2,7.8z"/>
			</g>
		</g>
	</g>
</g>
</svg>
