<?xml version="1.0" encoding="utf-8"?>
<!-- Generator: Adobe Illustrator 24.0.1, SVG Export Plug-In . SVG Version: 6.00 Build 0)  -->
<svg version="1.1" id="Layer_2" xmlns="http://www.w3.org/2000/svg" xmlns:xlink="http://www.w3.org/1999/xlink" x="0px" y="0px"
	 viewBox="0 0 566.9 106.9" style="enable-background:new 0 0 566.9 106.9;" xml:space="preserve">
<style type="text/css">
	.st0{fill:#FFFFFF;}
</style>
<g>
	<g>
		<path class="st0" d="M95.5,79.7h-8.8V32h8.6v17.9c0.9-1.6,2.4-2.9,4.3-3.9c2-1,4.1-1.5,6.5-1.5c3.7,0,6.8,1.2,9.4,3.7
			c2.6,2.5,3.9,6,3.9,10.5v20.9h-8.8V61.2c0-2.7-0.6-4.8-1.9-6.2c-1.3-1.5-3-2.2-5.2-2.2c-2.3,0-4.2,0.8-5.7,2.4
			c-1.4,1.6-2.2,3.7-2.2,6.2V79.7z"/>
		<path class="st0" d="M137,36.2c0,1.5-0.5,2.8-1.6,3.9c-1,1-2.3,1.6-3.9,1.6c-1.5,0-2.8-0.5-3.9-1.6c-1-1-1.6-2.3-1.6-3.9
			c0-1.5,0.5-2.8,1.6-3.8c1-1,2.3-1.6,3.9-1.6c1.5,0,2.8,0.5,3.9,1.6C136.4,33.4,137,34.7,137,36.2z M135.9,45.5v34.2H127V45.5
			H135.9z"/>
		<path class="st0" d="M163.1,44.6c4.9,0,8.9,1.7,12.2,5.2c3.3,3.4,4.9,7.7,4.9,12.8c0,5.1-1.6,9.4-4.9,12.8
			c-3.3,3.4-7.3,5.1-12.2,5.1c-4.3,0-7.9-1.7-10.7-5.1v4.3h-8.6V32h8.8v17.4C155.5,46.2,159,44.6,163.1,44.6z M152.3,62.6
			c0,2.7,0.9,5.1,2.6,7c1.8,1.9,4,2.8,6.8,2.8c2.8,0,5-0.9,6.8-2.8c1.8-1.9,2.6-4.3,2.6-7s-0.9-5.1-2.6-7c-1.8-1.9-4-2.8-6.8-2.8
			c-2.8,0-5,1-6.8,2.9C153.1,57.5,152.3,59.8,152.3,62.6z"/>
		<path class="st0" d="M184.5,62.6c0-5.1,1.7-9.3,5.1-12.7c3.5-3.5,7.9-5.3,13.2-5.3c5.3,0,9.7,1.8,13.2,5.3
			c3.4,3.4,5.1,7.7,5.1,12.7c0,5.1-1.7,9.4-5.1,12.8c-3.5,3.5-7.9,5.2-13.2,5.2c-5.3,0-9.7-1.7-13.2-5.2
			C186.2,71.9,184.5,67.7,184.5,62.6z M196.1,69.5c1.8,1.9,4.1,2.8,6.8,2.8c2.6,0,4.9-0.9,6.7-2.8c1.8-2,2.8-4.3,2.8-7
			c0-2.7-0.9-5-2.8-6.9c-1.8-1.9-4.1-2.8-6.7-2.8c-2.7,0-5,0.9-6.8,2.8c-1.8,1.8-2.7,4.1-2.7,6.9C193.4,65.3,194.3,67.6,196.1,69.5z
			"/>
		<path class="st0" d="M244.6,62.5l11,17.2h-10.2l-6.5-11.2l-6.8,11.2h-10.2l11.4-17.4l-10.1-16.8h10.1L239,56l6.3-10.5h10
			L244.6,62.5z"/>
	</g>
	<g>
		<path class="st0" d="M283.9,80.4c-2.5,0-4.8-0.6-6.9-1.8c-2-1.2-3.6-3-4.8-5.4l2.1-1.2c2,4.1,5.1,6.1,9.4,6.1
			c2.5,0,4.6-0.7,6.2-2.1c1.6-1.4,2.4-3.2,2.4-5.2c0-1.4-0.4-2.6-1.2-3.5c-0.8-0.9-2.1-1.8-3.8-2.6c-0.5-0.3-1.8-0.8-4-1.6
			c-1.5-0.6-2.8-1.1-3.8-1.6c-3.7-1.8-5.6-4.4-5.6-7.7c0-2.5,0.9-4.6,2.7-6.2c1.8-1.6,4.3-2.4,7.3-2.4c4.4,0,7.7,1.7,9.8,5.2
			l-1.8,1.3c-1.6-2.8-4.3-4.1-7.9-4.1c-2.4,0-4.3,0.6-5.6,1.7c-1.4,1.2-2.1,2.7-2.1,4.5c0,2.4,1.4,4.3,4.3,5.8
			c0.9,0.4,2.2,1,3.9,1.6c1.7,0.7,3.1,1.3,4.3,1.8c2.1,1,3.6,2,4.6,3.2c1,1.2,1.4,2.7,1.4,4.5c0,2.8-1,5.1-3.1,7.1
			C289.7,79.5,287.1,80.4,283.9,80.4z"/>
		<path class="st0" d="M317.4,80.4c-4.8,0-8.9-1.6-12.1-4.9c-3.1-3.3-4.7-7.5-4.7-12.6c0-5.1,1.6-9.4,4.8-12.7c3.3-3.3,7.4-5,12.4-5
			c3.3,0,6.3,0.8,9,2.3c2.7,1.5,4.6,3.6,5.9,6.3l-2.1,1.1c-1.1-2.3-2.8-4.1-5.1-5.4c-2.3-1.3-4.9-2-7.8-2c-4.3,0-7.8,1.4-10.5,4.3
			c-2.8,2.8-4.1,6.5-4.1,11c0,4.5,1.3,8.2,4,11c2.7,2.8,6.1,4.2,10.3,4.2c2.8,0,5.4-0.7,7.8-2c2.4-1.4,4.1-3.2,5.3-5.4l2,1.3
			c-1.4,2.6-3.4,4.7-6.1,6.2C323.6,79.7,320.6,80.4,317.4,80.4z"/>
		<path class="st0" d="M342.6,79.7h-2.5V32.5h2.4v20.4c1.9-5.1,6-7.6,12.3-7.6c3.8,0,7,1.3,9.5,3.8c2.5,2.4,3.8,5.9,3.8,10.5v20.2
			h-2.5V59.5c0-3.6-1-6.5-2.9-8.7c-1.9-2.2-4.6-3.2-7.9-3.2c-1.3,0-2.7,0.2-4,0.6c-1.3,0.4-2.6,1.1-3.9,2c-1.3,0.9-2.3,2.3-3.1,4.1
			c-0.8,1.8-1.2,4-1.2,6.4V79.7z"/>
		<path class="st0" d="M407.8,60.8c0,0.5-0.1,1.4-0.2,2.9h-29.2c0.2,4.4,1.6,7.9,4.2,10.5c2.6,2.6,6.1,3.9,10.5,3.9
			c2.3,0,4.6-0.4,6.9-1.1c2.3-0.8,4.2-1.8,5.7-3l1.3,1.9c-1.6,1.3-3.6,2.4-6.1,3.3c-2.5,0.9-5.1,1.3-7.8,1.3
			c-5.6,0-9.9-1.7-12.8-5.2c-2.9-3.4-4.4-7.6-4.4-12.4c0-5.1,1.5-9.2,4.5-12.5c3.1-3.3,7.1-5,12-5c4.4,0,8.1,1.4,10.9,4.2
			C406.4,52.3,407.8,56.1,407.8,60.8z M392.5,47.7c-3.9,0-7.2,1.3-9.8,3.8c-2.5,2.5-3.9,5.9-4.2,10h26.8c0-4.2-1.2-7.6-3.5-10
			C399.5,48.9,396.4,47.7,392.5,47.7z"/>
		<path class="st0" d="M444.4,54.1V32.5h2.5v47.2h-2.5v-8c-1.3,2.8-3.3,4.9-5.8,6.5c-2.5,1.6-5.4,2.4-8.5,2.4
			c-4.7,0-8.7-1.7-11.8-5.1c-3.1-3.4-4.7-7.6-4.7-12.5c0-4.9,1.6-9.1,4.7-12.5c3.2-3.4,7.1-5.1,11.8-5.1c3.1,0,6,0.8,8.5,2.4
			C441.1,49.3,443.1,51.4,444.4,54.1z M430.1,78.3c4.2,0,7.6-1.5,10.3-4.5c2.8-3,4.1-6.7,4.1-11c0-4.2-1.4-7.7-4.1-10.7
			c-2.7-2.9-6.1-4.4-10.3-4.4c-4.1,0-7.4,1.5-10,4.4c-2.6,2.9-3.9,6.5-3.9,10.8c0,4.3,1.3,7.9,3.9,10.9
			C422.7,76.8,426,78.3,430.1,78.3z"/>
		<path class="st0" d="M470.5,80.5c-4,0-7.3-1.2-9.7-3.7c-2.4-2.5-3.6-5.8-3.6-10V46.2h2.5v20.6c0,3.5,1,6.3,2.9,8.3
			c1.9,2,4.6,3.1,7.9,3.1c3.4,0,6-1,7.9-3c1.9-2,2.9-4.8,2.9-8.4V46.2h2.5v20.7c0,4.2-1.2,7.5-3.5,10
			C477.8,79.3,474.6,80.5,470.5,80.5z"/>
		<path class="st0" d="M496.5,32.5v47.2H494V32.5H496.5z"/>
		<path class="st0" d="M536.7,60.8c0,0.5-0.1,1.4-0.2,2.9h-29.2c0.2,4.4,1.6,7.9,4.2,10.5c2.6,2.6,6.1,3.9,10.5,3.9
			c2.3,0,4.6-0.4,6.9-1.1c2.3-0.8,4.2-1.8,5.7-3l1.3,1.9c-1.6,1.3-3.6,2.4-6.1,3.3c-2.5,0.9-5.1,1.3-7.8,1.3
			c-5.6,0-9.9-1.7-12.8-5.2c-2.9-3.4-4.4-7.6-4.4-12.4c0-5.1,1.5-9.2,4.5-12.5c3.1-3.3,7.1-5,12-5c4.4,0,8.1,1.4,10.9,4.2
			C535.2,52.3,536.7,56.1,536.7,60.8z M521.4,47.7c-3.9,0-7.2,1.3-9.8,3.8c-2.5,2.5-3.9,5.9-4.2,10h26.8c0-4.2-1.2-7.6-3.5-10
			C528.3,48.9,525.2,47.7,521.4,47.7z"/>
		<path class="st0" d="M547.3,79.7h-2.5V46.2h2.3v5.6c1.8-4.3,5.1-6.5,9.8-6.5c1.5,0,3,0.2,4.3,0.6l-0.4,2.3
			c-1.1-0.4-2.3-0.6-3.6-0.6c-3.3,0-5.8,1.2-7.5,3.6c-1.6,2.4-2.4,5.3-2.4,8.7V79.7z"/>
		<path class="st0" d="M563.6,80.7c-1,0-1.7-0.4-2.2-1.2c-0.4-0.8-0.4-1.7,0-2.5c0.4-0.8,1.2-1.2,2.2-1.2c0.7,0,1.2,0.2,1.7,0.7
			c0.5,0.5,0.7,1,0.7,1.7c0,0.7-0.2,1.3-0.7,1.8C564.8,80.5,564.2,80.7,563.6,80.7z"/>
	</g>
	<g>
		<circle class="st0" cx="59.9" cy="50.2" r="4.9"/>
		<circle class="st0" cx="48.4" cy="50.2" r="4.9"/>
		<circle class="st0" cx="36.8" cy="50.2" r="4.9"/>
		<circle class="st0" cx="59.9" cy="63.2" r="4.9"/>
		<circle class="st0" cx="48.4" cy="63.2" r="4.9"/>
		<circle class="st0" cx="36.8" cy="63.2" r="4.9"/>
		<circle class="st0" cx="25.2" cy="63.2" r="4.9"/>
		<circle class="st0" cx="13.7" cy="63.2" r="4.9"/>
		<circle class="st0" cx="48.4" cy="76.2" r="4.9"/>
		<circle class="st0" cx="36.8" cy="76.2" r="4.9"/>
		<circle class="st0" cx="25.2" cy="76.2" r="4.9"/>
		<circle class="st0" cx="13.7" cy="76.2" r="4.9"/>
		<path class="st0" d="M60.8,25.9h-0.3v6.7c-0.2,2.9-2.4,5.1-5.5,5.1h0c-3,0-5.3-2-5.5-5.1v-6.7H24.3v6.7c-0.2,2.9-2.4,5.1-5.5,5.1
			h0c-3,0-5.3-2-5.5-5.1v-6.7h-1c-5.8,0-10.6,4.7-10.6,10.6V77c0,5.8,4.7,10.6,10.6,10.6h48.4c5.8,0,10.6-4.7,10.6-10.6V36.5
			C71.3,30.6,66.6,25.9,60.8,25.9z M66.6,78.5c0,2.7-2.2,4.8-4.8,4.8H11.3c-2.7,0-4.8-2.2-4.8-4.8V43h60.1V78.5z"/>
		<path class="st0" d="M14.1,32.1v-9.2c0-2.6,2.1-4.7,4.7-4.7h0c2.6,0,4.7,2.1,4.7,4.7v9.2c0,2.6-2.1,4.7-4.7,4.7h0
			C16.2,36.8,14.1,34.7,14.1,32.1z"/>
		<path class="st0" d="M50.3,32v-9.2c0-2.6,2.1-4.7,4.7-4.7h0c2.6,0,4.7,2.1,4.7,4.7V32c0,2.6-2.1,4.7-4.7,4.7h0
			C52.4,36.8,50.3,34.7,50.3,32z"/>
	</g>
</g>
</svg>
