<?xml version="1.0" encoding="utf-8"?>
<!-- Generator: Adobe Illustrator 24.0.1, SVG Export Plug-In . SVG Version: 6.00 Build 0)  -->
<svg version="1.1" id="Layer_2" xmlns="http://www.w3.org/2000/svg" xmlns:xlink="http://www.w3.org/1999/xlink" x="0px" y="0px"
	 viewBox="0 0 427 97.5" style="enable-background:new 0 0 427 97.5;" xml:space="preserve">
<style type="text/css">
	.st0{fill:#31383F;}
</style>
<g>
	<path class="st0" d="M170,54.6h-9.5V3.2h9.3v19.4c1-1.7,2.5-3.1,4.7-4.2c2.1-1.1,4.4-1.6,7-1.6c4,0,7.4,1.3,10.2,4
		c2.8,2.7,4.2,6.5,4.2,11.4v22.5h-9.5v-20c0-2.9-0.7-5.1-2.1-6.7c-1.4-1.6-3.3-2.4-5.7-2.4c-2.5,0-4.6,0.9-6.1,2.6
		c-1.6,1.7-2.3,4-2.3,6.7V54.6z"/>
	<path class="st0" d="M214.8,7.7c0,1.7-0.6,3.1-1.7,4.2c-1.1,1.1-2.5,1.7-4.2,1.7c-1.7,0-3.1-0.6-4.2-1.7c-1.1-1.1-1.7-2.5-1.7-4.2
		c0-1.7,0.6-3,1.7-4.1c1.1-1.1,2.5-1.7,4.2-1.7c1.7,0,3.1,0.6,4.2,1.7C214.2,4.7,214.8,6,214.8,7.7z M213.7,17.7v36.9h-9.5V17.7
		H213.7z"/>
	<path class="st0" d="M243,16.8c5.2,0,9.6,1.9,13.1,5.6c3.5,3.7,5.3,8.3,5.3,13.8c0,5.5-1.8,10.1-5.3,13.8
		c-3.5,3.7-7.9,5.5-13.1,5.5c-4.6,0-8.5-1.8-11.5-5.5v4.6h-9.3V3.2h9.5V22C234.8,18.5,238.5,16.8,243,16.8z M231.3,36.2
		c0,2.9,0.9,5.5,2.8,7.6c1.9,2,4.3,3,7.3,3c3,0,5.4-1,7.3-3c1.9-2.1,2.8-4.6,2.8-7.6c0-3-0.9-5.5-2.8-7.5c-1.9-2-4.3-3-7.3-3
		c-3,0-5.4,1-7.3,3.1C232.3,30.7,231.3,33.2,231.3,36.2z"/>
	<path class="st0" d="M266.1,36.2c0-5.5,1.9-10,5.6-13.7c3.7-3.8,8.5-5.7,14.2-5.7c5.7,0,10.5,1.9,14.2,5.7
		c3.7,3.7,5.6,8.3,5.6,13.7c0,5.5-1.9,10.1-5.6,13.8c-3.7,3.7-8.5,5.6-14.2,5.6c-5.7,0-10.5-1.9-14.2-5.6
		C268,46.3,266.1,41.7,266.1,36.2z M278.6,43.7c1.9,2,4.4,3,7.3,3c2.8,0,5.3-1,7.2-3c2-2.1,3-4.6,3-7.5c0-2.9-1-5.4-3-7.4
		c-2-2-4.4-3-7.2-3c-2.9,0-5.4,1-7.3,3c-1.9,2-2.9,4.5-2.9,7.4C275.7,39.1,276.6,41.6,278.6,43.7z"/>
	<path class="st0" d="M331,36.1l11.8,18.6h-11l-7-12.1l-7.4,12.1h-11l12.3-18.8l-10.9-18.1h10.9L325,29l6.8-11.3h10.8L331,36.1z"/>
</g>
<g>
	<path class="st0" d="M164.2,94.7c-1.7,0-3.2-0.4-4.5-1.2c-1.3-0.8-2.4-2-3.1-3.6l1.4-0.8c1.3,2.7,3.4,4,6.2,4c1.6,0,3-0.5,4.1-1.4
		c1.1-0.9,1.6-2.1,1.6-3.4c0-0.9-0.3-1.7-0.8-2.3c-0.5-0.6-1.4-1.2-2.5-1.7c-0.3-0.2-1.2-0.5-2.6-1.1c-1-0.4-1.9-0.7-2.5-1.1
		c-2.4-1.2-3.7-2.9-3.7-5.1c0-1.6,0.6-3,1.8-4.1s2.8-1.6,4.8-1.6c2.9,0,5.1,1.1,6.5,3.4l-1.2,0.8c-1.1-1.8-2.8-2.7-5.2-2.7
		c-1.6,0-2.8,0.4-3.7,1.1c-0.9,0.8-1.4,1.8-1.4,3c0,1.6,0.9,2.9,2.8,3.8c0.6,0.3,1.5,0.6,2.6,1.1c1.1,0.4,2.1,0.8,2.8,1.2
		c1.4,0.6,2.4,1.3,3,2.1c0.6,0.8,0.9,1.8,0.9,3c0,1.8-0.7,3.4-2.1,4.7C168,94.1,166.3,94.7,164.2,94.7z"/>
	<path class="st0" d="M186.2,94.7c-3.2,0-5.8-1.1-8-3.2c-2.1-2.2-3.1-5-3.1-8.3c0-3.4,1.1-6.2,3.2-8.3c2.1-2.2,4.9-3.3,8.1-3.3
		c2.2,0,4.2,0.5,5.9,1.5c1.7,1,3,2.4,3.9,4.1l-1.4,0.7c-0.7-1.5-1.8-2.7-3.3-3.5c-1.5-0.9-3.2-1.3-5.1-1.3c-2.8,0-5.1,0.9-6.9,2.8
		c-1.8,1.8-2.7,4.3-2.7,7.3c0,3,0.9,5.4,2.6,7.2c1.8,1.8,4,2.8,6.8,2.8c1.9,0,3.6-0.4,5.1-1.3c1.6-0.9,2.7-2.1,3.5-3.6l1.3,0.8
		c-0.9,1.7-2.3,3.1-4,4.1C190.4,94.2,188.4,94.7,186.2,94.7z"/>
	<path class="st0" d="M202.8,94.2h-1.6V63.1h1.6v13.4c1.3-3.3,4-5,8.1-5c2.5,0,4.6,0.8,6.3,2.5c1.7,1.6,2.5,3.9,2.5,6.9v13.3H218
		V80.9c0-2.4-0.6-4.3-1.9-5.7c-1.3-1.4-3-2.1-5.2-2.1c-0.9,0-1.8,0.1-2.6,0.4c-0.9,0.3-1.7,0.7-2.6,1.3c-0.8,0.6-1.5,1.5-2,2.7
		c-0.5,1.2-0.8,2.6-0.8,4.2V94.2z"/>
	<path class="st0" d="M245.8,81.8c0,0.3,0,0.9-0.1,1.9h-19.2c0.1,2.9,1.1,5.2,2.8,6.9c1.7,1.7,4,2.5,6.9,2.5c1.5,0,3-0.2,4.5-0.7
		c1.5-0.5,2.7-1.2,3.7-2l0.9,1.2c-1,0.9-2.4,1.6-4,2.2c-1.6,0.6-3.4,0.8-5.1,0.8c-3.7,0-6.5-1.1-8.4-3.4c-1.9-2.3-2.9-5-2.9-8.2
		c0-3.3,1-6.1,3-8.2c2-2.2,4.6-3.3,7.9-3.3c2.9,0,5.3,0.9,7.2,2.8C244.8,76.2,245.8,78.6,245.8,81.8z M235.7,73.1
		c-2.6,0-4.7,0.8-6.4,2.5c-1.7,1.6-2.6,3.9-2.8,6.6h17.6c0-2.8-0.8-5-2.3-6.6C240.3,73.9,238.2,73.1,235.7,73.1z"/>
	<path class="st0" d="M269.8,77.3V63.1h1.6v31.1h-1.6v-5.3c-0.9,1.8-2.2,3.2-3.8,4.3c-1.7,1-3.5,1.6-5.6,1.6c-3.1,0-5.7-1.1-7.8-3.3
		c-2.1-2.2-3.1-5-3.1-8.2c0-3.2,1-6,3.1-8.2c2.1-2.2,4.7-3.3,7.8-3.3c2.1,0,3.9,0.5,5.6,1.5C267.7,74.2,268.9,75.6,269.8,77.3z
		 M260.4,93.2c2.7,0,5-1,6.8-3c1.8-2,2.7-4.4,2.7-7.2c0-2.7-0.9-5.1-2.7-7c-1.8-1.9-4-2.9-6.8-2.9c-2.7,0-4.9,1-6.6,2.9
		c-1.7,1.9-2.6,4.3-2.6,7.1c0,2.8,0.9,5.2,2.6,7.2C255.5,92.3,257.7,93.2,260.4,93.2z"/>
	<path class="st0" d="M287,94.7c-2.6,0-4.8-0.8-6.4-2.4c-1.6-1.6-2.4-3.8-2.4-6.6V72.1h1.6v13.6c0,2.3,0.6,4.1,1.9,5.5
		c1.3,1.3,3,2,5.2,2c2.2,0,4-0.7,5.2-2c1.3-1.3,1.9-3.2,1.9-5.5V72.1h1.6v13.6c0,2.7-0.8,4.9-2.3,6.6
		C291.8,93.9,289.7,94.7,287,94.7z"/>
	<path class="st0" d="M304.1,63.1v31.1h-1.6V63.1H304.1z"/>
	<path class="st0" d="M330.5,81.8c0,0.3,0,0.9-0.1,1.9h-19.2c0.1,2.9,1.1,5.2,2.8,6.9c1.7,1.7,4,2.5,6.9,2.5c1.5,0,3-0.2,4.5-0.7
		c1.5-0.5,2.7-1.2,3.7-2l0.9,1.2c-1,0.9-2.4,1.6-4,2.2c-1.6,0.6-3.4,0.8-5.1,0.8c-3.7,0-6.5-1.1-8.4-3.4c-1.9-2.3-2.9-5-2.9-8.2
		c0-3.3,1-6.1,3-8.2c2-2.2,4.6-3.3,7.9-3.3c2.9,0,5.3,0.9,7.2,2.8C329.6,76.2,330.5,78.6,330.5,81.8z M320.5,73.1
		c-2.6,0-4.7,0.8-6.4,2.5c-1.7,1.6-2.6,3.9-2.8,6.6h17.6c0-2.8-0.8-5-2.3-6.6C325,73.9,323,73.1,320.5,73.1z"/>
	<path class="st0" d="M337.5,94.2h-1.6V72.1h1.5v3.7c1.2-2.9,3.4-4.3,6.4-4.3c1,0,2,0.1,2.8,0.4l-0.2,1.5c-0.7-0.2-1.5-0.4-2.4-0.4
		c-2.2,0-3.8,0.8-4.9,2.4c-1,1.6-1.6,3.5-1.6,5.7V94.2z"/>
	<path class="st0" d="M348.2,94.8c-0.7,0-1.1-0.2-1.4-0.8c-0.3-0.5-0.3-1.1,0-1.6c0.3-0.5,0.8-0.8,1.4-0.8c0.4,0,0.8,0.2,1.1,0.5
		c0.3,0.3,0.5,0.7,0.5,1.1c0,0.5-0.2,0.9-0.5,1.2C349,94.7,348.7,94.8,348.2,94.8z"/>
</g>
<g>
	<circle class="st0" cx="131.6" cy="43.2" r="5.3"/>
	<circle class="st0" cx="119.2" cy="43.2" r="5.3"/>
	<circle class="st0" cx="106.7" cy="43.2" r="5.3"/>
	<circle class="st0" cx="131.6" cy="57.2" r="5.3"/>
	<circle class="st0" cx="119.2" cy="57.2" r="5.3"/>
	<circle class="st0" cx="106.7" cy="57.2" r="5.3"/>
	<circle class="st0" cx="94.3" cy="57.2" r="5.3"/>
	<circle class="st0" cx="81.8" cy="57.2" r="5.3"/>
	<circle class="st0" cx="119.2" cy="71.2" r="5.3"/>
	<circle class="st0" cx="106.7" cy="71.2" r="5.3"/>
	<circle class="st0" cx="94.3" cy="71.2" r="5.3"/>
	<circle class="st0" cx="81.8" cy="71.2" r="5.3"/>
	<path class="st0" d="M132.6,16.9h-0.4v7.2c-0.2,3.2-2.6,5.5-5.9,5.5h0c-3.3,0-5.7-2.2-5.9-5.5v-7.2H93.2v7.2
		c-0.2,3.2-2.6,5.5-5.9,5.5h0c-3.3,0-5.7-2.2-5.9-5.5v-7.2h-1C74.1,16.9,69,22,69,28.3v43.7c0,6.3,5.1,11.4,11.4,11.4h52.2
		c6.3,0,11.4-5.1,11.4-11.4V28.3C144,22,138.9,16.9,132.6,16.9z M138.9,73.7c0,2.9-2.3,5.2-5.2,5.2H79.2c-2.9,0-5.2-2.3-5.2-5.2
		V35.4h64.9V73.7z"/>
	<path class="st0" d="M82.2,23.6v-9.9c0-2.8,2.3-5.1,5.1-5.1h0c2.8,0,5.1,2.3,5.1,5.1v9.9c0,2.8-2.3,5.1-5.1,5.1h0
		C84.5,28.8,82.2,26.5,82.2,23.6z"/>
	<path class="st0" d="M121.3,23.6v-9.9c0-2.8,2.3-5.1,5.1-5.1h0c2.8,0,5.1,2.3,5.1,5.1v9.9c0,2.8-2.3,5.1-5.1,5.1h0
		C123.6,28.7,121.3,26.4,121.3,23.6z"/>
</g>
</svg>
