<?xml version="1.0" encoding="utf-8"?>
<!-- Generator: Adobe Illustrator 24.0.1, SVG Export Plug-In . SVG Version: 6.00 Build 0)  -->
<svg version="1.1" id="Layer_3" xmlns="http://www.w3.org/2000/svg" xmlns:xlink="http://www.w3.org/1999/xlink" x="0px" y="0px"
	 viewBox="0 0 101 22" style="enable-background:new 0 0 101 22;" xml:space="preserve">
<style type="text/css">
	.st0{fill:#31383F;}
</style>
<g>
	<g>
		<g>
			<path class="st0" d="M17.8,15.5h-1.5V7.3h1.5v3.1c0.2-0.3,0.4-0.5,0.7-0.7c0.3-0.2,0.7-0.3,1.1-0.3c0.6,0,1.2,0.2,1.6,0.6
				c0.4,0.4,0.7,1,0.7,1.8v3.6h-1.5v-3.2c0-0.5-0.1-0.8-0.3-1.1c-0.2-0.3-0.5-0.4-0.9-0.4c-0.4,0-0.7,0.1-1,0.4
				c-0.2,0.3-0.4,0.6-0.4,1.1V15.5z"/>
			<path class="st0" d="M25,8c0,0.3-0.1,0.5-0.3,0.7C24.5,8.9,24.3,9,24,9c-0.3,0-0.5-0.1-0.7-0.3c-0.2-0.2-0.3-0.4-0.3-0.7
				c0-0.3,0.1-0.5,0.3-0.7c0.2-0.2,0.4-0.3,0.7-0.3c0.3,0,0.5,0.1,0.7,0.3C24.9,7.5,25,7.8,25,8z M24.8,9.6v5.9h-1.5V9.6H24.8z"/>
			<path class="st0" d="M29.5,9.5c0.8,0,1.5,0.3,2.1,0.9c0.6,0.6,0.8,1.3,0.8,2.2c0,0.9-0.3,1.6-0.8,2.2c-0.6,0.6-1.3,0.9-2.1,0.9
				c-0.7,0-1.4-0.3-1.8-0.9v0.7h-1.5V7.3h1.5v3C28.2,9.8,28.8,9.5,29.5,9.5z M27.6,12.6c0,0.5,0.2,0.9,0.5,1.2
				c0.3,0.3,0.7,0.5,1.2,0.5c0.5,0,0.9-0.2,1.2-0.5c0.3-0.3,0.5-0.7,0.5-1.2c0-0.5-0.2-0.9-0.5-1.2c-0.3-0.3-0.7-0.5-1.2-0.5
				c-0.5,0-0.9,0.2-1.2,0.5C27.8,11.7,27.6,12.1,27.6,12.6z"/>
			<path class="st0" d="M33.2,12.6c0-0.9,0.3-1.6,0.9-2.2c0.6-0.6,1.4-0.9,2.3-0.9c0.9,0,1.7,0.3,2.3,0.9c0.6,0.6,0.9,1.3,0.9,2.2
				c0,0.9-0.3,1.6-0.9,2.2c-0.6,0.6-1.4,0.9-2.3,0.9c-0.9,0-1.7-0.3-2.3-0.9C33.5,14.2,33.2,13.5,33.2,12.6z M35.2,13.8
				c0.3,0.3,0.7,0.5,1.2,0.5c0.5,0,0.8-0.2,1.2-0.5c0.3-0.3,0.5-0.7,0.5-1.2c0-0.5-0.2-0.9-0.5-1.2c-0.3-0.3-0.7-0.5-1.2-0.5
				c-0.5,0-0.9,0.2-1.2,0.5c-0.3,0.3-0.5,0.7-0.5,1.2C34.7,13,34.9,13.4,35.2,13.8z"/>
			<path class="st0" d="M43.6,12.6l1.9,3h-1.8l-1.1-1.9l-1.2,1.9h-1.8l2-3l-1.7-2.9h1.7l1,1.8l1.1-1.8h1.7L43.6,12.6z"/>
		</g>
		<g>
			<path class="st0" d="M50.3,15.7c-0.4,0-0.8-0.1-1.2-0.3c-0.4-0.2-0.6-0.5-0.8-0.9l0.4-0.2c0.3,0.7,0.9,1.1,1.6,1.1
				c0.4,0,0.8-0.1,1.1-0.4c0.3-0.2,0.4-0.5,0.4-0.9c0-0.2-0.1-0.4-0.2-0.6c-0.1-0.2-0.4-0.3-0.7-0.4c-0.1,0-0.3-0.1-0.7-0.3
				c-0.3-0.1-0.5-0.2-0.7-0.3c-0.6-0.3-1-0.8-1-1.3c0-0.4,0.2-0.8,0.5-1.1c0.3-0.3,0.7-0.4,1.3-0.4c0.8,0,1.3,0.3,1.7,0.9l-0.3,0.2
				c-0.3-0.5-0.7-0.7-1.4-0.7c-0.4,0-0.7,0.1-1,0.3C49.2,10.4,49,10.7,49,11c0,0.4,0.2,0.8,0.7,1c0.2,0.1,0.4,0.2,0.7,0.3
				c0.3,0.1,0.5,0.2,0.7,0.3c0.4,0.2,0.6,0.3,0.8,0.6c0.2,0.2,0.2,0.5,0.2,0.8c0,0.5-0.2,0.9-0.5,1.2C51.3,15.5,50.9,15.7,50.3,15.7
				z"/>
			<path class="st0" d="M56.1,15.7c-0.8,0-1.5-0.3-2.1-0.8c-0.5-0.6-0.8-1.3-0.8-2.2c0-0.9,0.3-1.6,0.8-2.2c0.6-0.6,1.3-0.9,2.1-0.9
				c0.6,0,1.1,0.1,1.6,0.4c0.5,0.3,0.8,0.6,1,1.1l-0.4,0.2c-0.2-0.4-0.5-0.7-0.9-0.9c-0.4-0.2-0.8-0.3-1.3-0.3
				c-0.7,0-1.3,0.2-1.8,0.7c-0.5,0.5-0.7,1.1-0.7,1.9c0,0.8,0.2,1.4,0.7,1.9c0.5,0.5,1.1,0.7,1.8,0.7c0.5,0,0.9-0.1,1.3-0.4
				c0.4-0.2,0.7-0.5,0.9-0.9l0.3,0.2c-0.2,0.5-0.6,0.8-1.1,1.1C57.2,15.5,56.7,15.7,56.1,15.7z"/>
			<path class="st0" d="M60.5,15.5H60V7.4h0.4v3.5c0.3-0.9,1-1.3,2.1-1.3c0.7,0,1.2,0.2,1.6,0.6c0.4,0.4,0.7,1,0.7,1.8v3.5h-0.4V12
				c0-0.6-0.2-1.1-0.5-1.5c-0.3-0.4-0.8-0.6-1.4-0.6c-0.2,0-0.5,0-0.7,0.1c-0.2,0.1-0.5,0.2-0.7,0.3c-0.2,0.2-0.4,0.4-0.5,0.7
				c-0.1,0.3-0.2,0.7-0.2,1.1V15.5z"/>
			<path class="st0" d="M71.7,12.3c0,0.1,0,0.2,0,0.5h-5c0,0.8,0.3,1.4,0.7,1.8c0.5,0.4,1.1,0.7,1.8,0.7c0.4,0,0.8-0.1,1.2-0.2
				c0.4-0.1,0.7-0.3,1-0.5l0.2,0.3c-0.3,0.2-0.6,0.4-1.1,0.6c-0.4,0.1-0.9,0.2-1.3,0.2c-1,0-1.7-0.3-2.2-0.9
				c-0.5-0.6-0.8-1.3-0.8-2.1c0-0.9,0.3-1.6,0.8-2.2c0.5-0.6,1.2-0.9,2.1-0.9c0.8,0,1.4,0.2,1.9,0.7C71.5,10.8,71.7,11.5,71.7,12.3z
				 M69.1,10c-0.7,0-1.2,0.2-1.7,0.6c-0.4,0.4-0.7,1-0.7,1.7h4.6c0-0.7-0.2-1.3-0.6-1.7C70.3,10.2,69.7,10,69.1,10z"/>
			<path class="st0" d="M78,11.1V7.4h0.4v8.1H78v-1.4c-0.2,0.5-0.6,0.9-1,1.1c-0.4,0.3-0.9,0.4-1.5,0.4c-0.8,0-1.5-0.3-2-0.9
				c-0.5-0.6-0.8-1.3-0.8-2.2c0-0.9,0.3-1.6,0.8-2.2c0.5-0.6,1.2-0.9,2-0.9c0.5,0,1,0.1,1.5,0.4C77.5,10.3,77.8,10.7,78,11.1z
				 M75.6,15.3c0.7,0,1.3-0.3,1.8-0.8c0.5-0.5,0.7-1.2,0.7-1.9c0-0.7-0.2-1.3-0.7-1.8c-0.5-0.5-1.1-0.8-1.8-0.8
				c-0.7,0-1.3,0.3-1.7,0.8c-0.5,0.5-0.7,1.1-0.7,1.9c0,0.7,0.2,1.4,0.7,1.9C74.3,15,74.9,15.3,75.6,15.3z"/>
			<path class="st0" d="M82.5,15.7c-0.7,0-1.3-0.2-1.7-0.6c-0.4-0.4-0.6-1-0.6-1.7V9.7h0.4v3.6c0,0.6,0.2,1.1,0.5,1.4
				c0.3,0.4,0.8,0.5,1.4,0.5c0.6,0,1-0.2,1.4-0.5c0.3-0.3,0.5-0.8,0.5-1.5V9.7h0.4v3.6c0,0.7-0.2,1.3-0.6,1.7
				C83.8,15.5,83.2,15.7,82.5,15.7z"/>
			<path class="st0" d="M87,7.4v8.1h-0.4V7.4H87z"/>
			<path class="st0" d="M93.9,12.3c0,0.1,0,0.2,0,0.5h-5c0,0.8,0.3,1.4,0.7,1.8c0.5,0.4,1.1,0.7,1.8,0.7c0.4,0,0.8-0.1,1.2-0.2
				c0.4-0.1,0.7-0.3,1-0.5l0.2,0.3c-0.3,0.2-0.6,0.4-1.1,0.6c-0.4,0.1-0.9,0.2-1.3,0.2c-1,0-1.7-0.3-2.2-0.9
				c-0.5-0.6-0.8-1.3-0.8-2.1c0-0.9,0.3-1.6,0.8-2.2c0.5-0.6,1.2-0.9,2.1-0.9c0.8,0,1.4,0.2,1.9,0.7C93.7,10.8,93.9,11.5,93.9,12.3z
				 M91.3,10c-0.7,0-1.2,0.2-1.7,0.6c-0.4,0.4-0.7,1-0.7,1.7h4.6c0-0.7-0.2-1.3-0.6-1.7C92.5,10.2,92,10,91.3,10z"/>
			<path class="st0" d="M95.8,15.5h-0.4V9.7h0.4v1c0.3-0.7,0.9-1.1,1.7-1.1c0.3,0,0.5,0,0.7,0.1l-0.1,0.4C97.9,10,97.7,10,97.5,10
				c-0.6,0-1,0.2-1.3,0.6c-0.3,0.4-0.4,0.9-0.4,1.5V15.5z"/>
			<path class="st0" d="M98.6,15.7c-0.2,0-0.3-0.1-0.4-0.2c-0.1-0.1-0.1-0.3,0-0.4c0.1-0.1,0.2-0.2,0.4-0.2c0.1,0,0.2,0,0.3,0.1
				c0.1,0.1,0.1,0.2,0.1,0.3c0,0.1,0,0.2-0.1,0.3C98.8,15.7,98.7,15.7,98.6,15.7z"/>
		</g>
		<g>
			<g>
				<circle class="st0" cx="11.7" cy="10.4" r="0.8"/>
			</g>
			<g>
				<circle class="st0" cx="9.7" cy="10.4" r="0.8"/>
			</g>
			<g>
				<circle class="st0" cx="7.7" cy="10.4" r="0.8"/>
			</g>
			<g>
				<circle class="st0" cx="11.7" cy="12.7" r="0.8"/>
			</g>
			<g>
				<circle class="st0" cx="9.7" cy="12.7" r="0.8"/>
			</g>
			<g>
				<circle class="st0" cx="7.7" cy="12.7" r="0.8"/>
			</g>
			<g>
				<circle class="st0" cx="5.7" cy="12.7" r="0.8"/>
			</g>
			<g>
				<circle class="st0" cx="3.7" cy="12.7" r="0.8"/>
			</g>
			<g>
				<circle class="st0" cx="9.7" cy="14.9" r="0.8"/>
			</g>
			<g>
				<circle class="st0" cx="7.7" cy="14.9" r="0.8"/>
			</g>
			<g>
				<circle class="st0" cx="5.7" cy="14.9" r="0.8"/>
			</g>
			<g>
				<circle class="st0" cx="3.7" cy="14.9" r="0.8"/>
			</g>
			<path class="st0" d="M11.8,6.2L11.8,6.2l-0.1,1.2c0,0.5-0.4,0.9-0.9,0.9h0c-0.5,0-0.9-0.4-0.9-0.9V6.2H5.5v1.2
				c0,0.5-0.4,0.9-0.9,0.9h0c-0.5,0-0.9-0.4-0.9-0.9V6.2H3.5c-1,0-1.8,0.8-1.8,1.8v7c0,1,0.8,1.8,1.8,1.8h8.3c1,0,1.8-0.8,1.8-1.8
				v-7C13.7,7.1,12.8,6.2,11.8,6.2z M12.8,15.3c0,0.5-0.4,0.8-0.8,0.8H3.3c-0.5,0-0.8-0.4-0.8-0.8V9.2h10.4V15.3z"/>
			<g>
				<path class="st0" d="M3.8,7.3V5.7c0-0.5,0.4-0.8,0.8-0.8h0c0.5,0,0.8,0.4,0.8,0.8v1.6c0,0.5-0.4,0.8-0.8,0.8h0
					C4.1,8.1,3.8,7.8,3.8,7.3z"/>
			</g>
			<g>
				<path class="st0" d="M10,7.3V5.7c0-0.5,0.4-0.8,0.8-0.8h0c0.5,0,0.8,0.4,0.8,0.8v1.6c0,0.5-0.4,0.8-0.8,0.8h0
					C10.4,8.1,10,7.8,10,7.3z"/>
			</g>
		</g>
	</g>
</g>
</svg>
