<?xml version="1.0" encoding="utf-8"?>
<!-- Generator: Adobe Illustrator 24.0.1, SVG Export Plug-In . SVG Version: 6.00 Build 0)  -->
<svg version="1.1" id="Layer_2" xmlns="http://www.w3.org/2000/svg" xmlns:xlink="http://www.w3.org/1999/xlink" x="0px" y="0px"
	 viewBox="0 0 427 97.5" style="enable-background:new 0 0 427 97.5;" xml:space="preserve">
<style type="text/css">
	.st0{fill:#FFFFFF;}
</style>
<g>
	<g>
		<path class="st0" d="M73.7,70.3h-6.6V34.8h6.4v13.3c0.7-1.2,1.8-2.1,3.2-2.9c1.5-0.7,3.1-1.1,4.8-1.1c2.7,0,5.1,0.9,7,2.8
			c1.9,1.8,2.9,4.4,2.9,7.8v15.5h-6.6V56.5c0-2-0.5-3.5-1.4-4.6c-0.9-1.1-2.2-1.7-3.9-1.7c-1.7,0-3.1,0.6-4.2,1.8
			c-1.1,1.2-1.6,2.7-1.6,4.6V70.3z"/>
		<path class="st0" d="M104.5,37.9c0,1.2-0.4,2.1-1.2,2.9c-0.8,0.8-1.7,1.2-2.9,1.2c-1.2,0-2.1-0.4-2.9-1.2
			c-0.8-0.8-1.2-1.7-1.2-2.9c0-1.2,0.4-2.1,1.2-2.8c0.8-0.8,1.7-1.2,2.9-1.2c1.2,0,2.1,0.4,2.9,1.2
			C104.1,35.8,104.5,36.8,104.5,37.9z M103.7,44.8v25.4h-6.6V44.8H103.7z"/>
		<path class="st0" d="M123.9,44.2c3.6,0,6.6,1.3,9.1,3.9c2.4,2.6,3.6,5.7,3.6,9.5c0,3.8-1.2,7-3.6,9.5c-2.4,2.5-5.4,3.8-9.1,3.8
			c-3.2,0-5.8-1.3-7.9-3.8v3.2h-6.4V34.8h6.6v13C118.3,45.4,120.9,44.2,123.9,44.2z M115.9,57.5c0,2,0.7,3.8,2,5.2
			c1.3,1.4,3,2.1,5,2.1s3.7-0.7,5-2.1c1.3-1.4,2-3.2,2-5.2c0-2.1-0.7-3.8-2-5.2c-1.3-1.4-3-2.1-5-2.1s-3.7,0.7-5,2.1
			C116.6,53.8,115.9,55.5,115.9,57.5z"/>
		<path class="st0" d="M139.9,57.5c0-3.8,1.3-6.9,3.8-9.5c2.6-2.6,5.8-3.9,9.8-3.9c4,0,7.2,1.3,9.8,3.9c2.6,2.6,3.8,5.7,3.8,9.5
			c0,3.8-1.3,7-3.8,9.5c-2.6,2.6-5.8,3.9-9.8,3.9c-4,0-7.2-1.3-9.8-3.9C141.2,64.5,139.9,61.3,139.9,57.5z M148.5,62.7
			c1.3,1.4,3,2.1,5,2.1c2,0,3.6-0.7,5-2.1c1.4-1.5,2.1-3.2,2.1-5.2c0-2-0.7-3.7-2.1-5.1c-1.4-1.4-3-2.1-5-2.1c-2,0-3.7,0.7-5,2.1
			c-1.3,1.4-2,3.1-2,5.1C146.5,59.5,147.1,61.3,148.5,62.7z"/>
		<path class="st0" d="M184.6,57.5l8.2,12.8h-7.6l-4.9-8.4l-5.1,8.4h-7.6l8.4-13l-7.5-12.5h7.5l4.3,7.8l4.7-7.8h7.4L184.6,57.5z"/>
	</g>
	<g>
		<path class="st0" d="M213.8,70.8c-1.9,0-3.6-0.5-5.1-1.4c-1.5-0.9-2.7-2.3-3.5-4l1.6-0.9c1.5,3,3.8,4.6,7,4.6
			c1.9,0,3.4-0.5,4.6-1.6c1.2-1.1,1.8-2.3,1.8-3.9c0-1.1-0.3-1.9-0.9-2.6c-0.6-0.7-1.5-1.3-2.8-1.9c-0.3-0.2-1.3-0.6-3-1.2
			c-1.2-0.4-2.1-0.8-2.8-1.2c-2.8-1.4-4.1-3.3-4.1-5.7c0-1.9,0.7-3.4,2-4.6c1.4-1.2,3.2-1.8,5.4-1.8c3.3,0,5.7,1.3,7.3,3.9l-1.4,0.9
			c-1.2-2.1-3.2-3.1-5.9-3.1c-1.8,0-3.2,0.4-4.2,1.3c-1,0.9-1.5,2-1.5,3.4c0,1.8,1.1,3.2,3.2,4.3c0.7,0.3,1.6,0.7,2.9,1.2
			c1.3,0.5,2.3,0.9,3.2,1.4c1.6,0.7,2.7,1.5,3.4,2.4c0.7,0.9,1.1,2,1.1,3.4c0,2.1-0.8,3.8-2.3,5.3C218.1,70.1,216.1,70.8,213.8,70.8
			z"/>
		<path class="st0" d="M238.7,70.8c-3.6,0-6.6-1.2-9-3.6c-2.3-2.5-3.5-5.6-3.5-9.4c0-3.8,1.2-7,3.6-9.4c2.4-2.5,5.5-3.7,9.2-3.7
			c2.5,0,4.7,0.6,6.7,1.7c2,1.1,3.4,2.7,4.4,4.7l-1.5,0.8c-0.8-1.7-2.1-3-3.8-4c-1.7-1-3.6-1.5-5.8-1.5c-3.2,0-5.8,1.1-7.8,3.2
			c-2.1,2.1-3.1,4.8-3.1,8.2c0,3.4,1,6.1,3,8.2c2,2.1,4.5,3.1,7.6,3.1c2.1,0,4-0.5,5.8-1.5c1.8-1,3.1-2.4,3.9-4l1.5,0.9
			c-1,2-2.5,3.5-4.6,4.6C243.3,70.3,241.1,70.8,238.7,70.8z"/>
		<path class="st0" d="M257.4,70.3h-1.9V35.2h1.8v15.2c1.4-3.8,4.5-5.6,9.1-5.6c2.9,0,5.2,0.9,7.1,2.8c1.9,1.8,2.8,4.4,2.8,7.8v15
			h-1.9v-15c0-2.7-0.7-4.9-2.2-6.5c-1.4-1.6-3.4-2.4-5.9-2.4c-1,0-2,0.2-3,0.5c-1,0.3-1.9,0.8-2.9,1.5c-0.9,0.7-1.7,1.7-2.3,3.1
			c-0.6,1.4-0.9,2.9-0.9,4.8V70.3z"/>
		<path class="st0" d="M305.9,56.2c0,0.3,0,1.1-0.1,2.2h-21.7c0.2,3.3,1.2,5.9,3.1,7.8c1.9,1.9,4.5,2.9,7.8,2.9
			c1.7,0,3.4-0.3,5.1-0.8c1.7-0.6,3.1-1.3,4.2-2.2l1,1.4c-1.2,1-2.7,1.8-4.6,2.4c-1.9,0.6-3.8,1-5.8,1c-4.2,0-7.4-1.3-9.5-3.8
			c-2.2-2.6-3.2-5.6-3.2-9.3c0-3.8,1.1-6.9,3.4-9.3c2.3-2.5,5.3-3.7,9-3.7c3.3,0,6,1,8.1,3.1C304.9,49.9,305.9,52.7,305.9,56.2z
			 M294.6,46.4c-2.9,0-5.3,0.9-7.3,2.8c-1.9,1.9-2.9,4.4-3.1,7.5h19.9c0-3.1-0.9-5.6-2.6-7.5C299.7,47.4,297.4,46.4,294.6,46.4z"/>
		<path class="st0" d="M333.2,51.2V35.2h1.9v35.1h-1.9v-6c-1,2.1-2.4,3.7-4.3,4.8c-1.9,1.2-4,1.8-6.3,1.8c-3.5,0-6.4-1.3-8.8-3.8
			c-2.3-2.5-3.5-5.6-3.5-9.3c0-3.7,1.2-6.8,3.5-9.3c2.4-2.5,5.3-3.8,8.8-3.8c2.3,0,4.4,0.6,6.3,1.7
			C330.7,47.7,332.1,49.3,333.2,51.2z M322.5,69.2c3.1,0,5.7-1.1,7.6-3.4c2.1-2.2,3.1-5,3.1-8.2c0-3.1-1-5.7-3.1-7.9
			c-2-2.2-4.5-3.3-7.6-3.3c-3,0-5.5,1.1-7.5,3.3c-2,2.2-2.9,4.9-2.9,8.1c0,3.2,1,5.9,2.9,8.1C317,68.1,319.5,69.2,322.5,69.2z"/>
		<path class="st0" d="M352.5,70.9c-3,0-5.4-0.9-7.2-2.8c-1.8-1.9-2.7-4.3-2.7-7.4V45.3h1.9v15.3c0,2.6,0.7,4.7,2.2,6.2
			c1.4,1.5,3.4,2.3,5.9,2.3c2.5,0,4.5-0.8,5.9-2.3c1.4-1.5,2.1-3.6,2.1-6.3V45.3h1.9v15.4c0,3.1-0.9,5.6-2.6,7.4
			C358,70,355.6,70.9,352.5,70.9z"/>
		<path class="st0" d="M371.9,35.2v35.1H370V35.2H371.9z"/>
		<path class="st0" d="M401.7,56.2c0,0.3,0,1.1-0.1,2.2h-21.7c0.2,3.3,1.2,5.9,3.1,7.8c1.9,1.9,4.5,2.9,7.8,2.9
			c1.7,0,3.4-0.3,5.1-0.8c1.7-0.6,3.1-1.3,4.2-2.2l1,1.4c-1.2,1-2.7,1.8-4.6,2.4c-1.9,0.6-3.8,1-5.8,1c-4.2,0-7.4-1.3-9.5-3.8
			c-2.2-2.6-3.2-5.6-3.2-9.3c0-3.8,1.1-6.9,3.4-9.3c2.3-2.5,5.3-3.7,9-3.7c3.3,0,6,1,8.1,3.1C400.7,49.9,401.7,52.7,401.7,56.2z
			 M390.4,46.4c-2.9,0-5.3,0.9-7.3,2.8c-1.9,1.9-2.9,4.4-3.1,7.5h19.9c0-3.1-0.9-5.6-2.6-7.5C395.5,47.4,393.2,46.4,390.4,46.4z"/>
		<path class="st0" d="M409.7,70.3h-1.9V45.3h1.7v4.2c1.4-3.2,3.8-4.8,7.3-4.8c1.1,0,2.2,0.2,3.2,0.5l-0.3,1.7
			c-0.8-0.3-1.7-0.4-2.7-0.4c-2.5,0-4.3,0.9-5.5,2.7c-1.2,1.8-1.8,4-1.8,6.5V70.3z"/>
		<path class="st0" d="M421.7,71c-0.7,0-1.3-0.3-1.6-0.9c-0.3-0.6-0.3-1.2,0-1.8c0.3-0.6,0.9-0.9,1.6-0.9c0.5,0,0.9,0.2,1.3,0.5
			c0.4,0.3,0.5,0.8,0.5,1.3c0,0.5-0.2,1-0.5,1.3C422.7,70.8,422.2,71,421.7,71z"/>
	</g>
	<g>
		<circle class="st0" cx="47.2" cy="48.3" r="3.6"/>
		<circle class="st0" cx="38.6" cy="48.3" r="3.6"/>
		<circle class="st0" cx="30" cy="48.3" r="3.6"/>
		<circle class="st0" cx="47.2" cy="58" r="3.6"/>
		<circle class="st0" cx="38.6" cy="58" r="3.6"/>
		<circle class="st0" cx="30" cy="58" r="3.6"/>
		<circle class="st0" cx="21.4" cy="58" r="3.6"/>
		<circle class="st0" cx="12.8" cy="58" r="3.6"/>
		<circle class="st0" cx="38.6" cy="67.6" r="3.6"/>
		<circle class="st0" cx="30" cy="67.6" r="3.6"/>
		<circle class="st0" cx="21.4" cy="67.6" r="3.6"/>
		<circle class="st0" cx="12.8" cy="67.6" r="3.6"/>
		<path class="st0" d="M47.8,30.2h-0.2v5c-0.1,2.2-1.8,3.8-4.1,3.8h0c-2.2,0-3.9-1.5-4.1-3.8v-5H20.7v5c-0.1,2.2-1.8,3.8-4.1,3.8h0
			c-2.2,0-3.9-1.5-4.1-3.8v-5h-0.7c-4.3,0-7.9,3.5-7.9,7.9v30.1c0,4.3,3.5,7.9,7.9,7.9h36c4.3,0,7.9-3.5,7.9-7.9V38.1
			C55.7,33.8,52.2,30.2,47.8,30.2z M52.2,69.4c0,2-1.6,3.6-3.6,3.6H11.1c-2,0-3.6-1.6-3.6-3.6V43h44.7V69.4z"/>
		<path class="st0" d="M13.1,34.9V28c0-1.9,1.6-3.5,3.5-3.5h0c1.9,0,3.5,1.6,3.5,3.5v6.8c0,1.9-1.6,3.5-3.5,3.5h0
			C14.7,38.4,13.1,36.8,13.1,34.9z"/>
		<path class="st0" d="M40.1,34.8V28c0-1.9,1.6-3.5,3.5-3.5h0c1.9,0,3.5,1.6,3.5,3.5v6.8c0,1.9-1.6,3.5-3.5,3.5h0
			C41.6,38.3,40.1,36.8,40.1,34.8z"/>
	</g>
</g>
</svg>
