<?xml version="1.0" encoding="utf-8"?>
<!-- Generator: Adobe Illustrator 24.0.1, SVG Export Plug-In . SVG Version: 6.00 Build 0)  -->
<svg version="1.1" id="Layer_1" xmlns="http://www.w3.org/2000/svg" xmlns:xlink="http://www.w3.org/1999/xlink" x="0px" y="0px"
	 viewBox="0 0 700 700" style="enable-background:new 0 0 700 700;" xml:space="preserve">
<style type="text/css">
	.st0{fill:#8F6DCA;}
	.st1{opacity:0.1;}
	.st2{fill:#FFFFFF;}
	.st3{display:none;}
	.st4{display:inline;}
</style>
<path class="st0" d="M594.1,693.7H105.8c-54.1,0-97.9-43.8-97.9-97.9v-492c0-54.1,43.8-97.9,97.9-97.9h488.3
	c54.1,0,97.9,43.8,97.9,97.9v492C692,649.9,648.2,693.7,594.1,693.7z"/>
<g class="st1">
	<circle cx="516.8" cy="335.9" r="34.2"/>
	<circle cx="436.4" cy="335.9" r="34.2"/>
	<circle cx="355.4" cy="335.9" r="34.2"/>
	<circle cx="516.8" cy="427.2" r="34.2"/>
	<circle cx="436.4" cy="427.2" r="34.2"/>
	<circle cx="355.4" cy="427.2" r="34.2"/>
	<circle cx="274.4" cy="427.2" r="34.2"/>
	<circle cx="193.4" cy="427.2" r="34.2"/>
	<circle cx="436.4" cy="517.8" r="34.2"/>
	<circle cx="355.4" cy="517.8" r="34.2"/>
	<circle cx="274.4" cy="517.8" r="34.2"/>
	<circle cx="193.4" cy="517.8" r="34.2"/>
	<path d="M523.1,165.6h-2.3v47c-1.2,20.5-17.1,35.7-38.3,35.7h0c-21.1,0-36.9-14.3-38.3-35.7v-47H267.5v47
		c-1.2,20.5-17.1,35.7-38.3,35.7h0c-21.1,0-36.9-14.3-38.3-35.7v-47h-6.7c-41,0-74.1,33.2-74.1,74.1v283.8c0,41,33.2,74.1,74.1,74.1
		h338.8c41,0,74.1-33.2,74.1-74.1V239.7C597.2,198.8,564,165.6,523.1,165.6z M564.1,534.4c0,18.6-15.1,33.7-33.7,33.7H176.8
		c-18.6,0-33.7-15.1-33.7-33.7v-249h420.9V534.4z"/>
	<path d="M447.6,210.3V143c0-19.2,15.6-34.8,34.8-34.8h0c19.2,0,34.8,15.6,34.8,34.8v67.3c0,19.2-15.6,34.8-34.8,34.8h0
		C463.2,245.1,447.6,229.5,447.6,210.3z"/>
	<path d="M194.4,210.3V143c0-19.2,15.6-34.8,34.8-34.8h0c19.2,0,34.8,15.6,34.8,34.8v67.3c0,19.2-15.6,34.8-34.8,34.8h0
		C209.9,245.1,194.4,229.5,194.4,210.3z"/>
</g>
<g>
	<circle class="st2" cx="513.1" cy="332.2" r="34.2"/>
	<circle class="st2" cx="432.6" cy="332.2" r="34.2"/>
	<circle class="st2" cx="351.6" cy="332.2" r="34.2"/>
	<circle class="st2" cx="513.1" cy="423.5" r="34.2"/>
	<circle class="st2" cx="432.6" cy="423.5" r="34.2"/>
	<circle class="st2" cx="351.6" cy="423.5" r="34.2"/>
	<circle class="st2" cx="270.7" cy="423.5" r="34.2"/>
	<circle class="st2" cx="189.7" cy="423.5" r="34.2"/>
	<circle class="st2" cx="432.6" cy="514.1" r="34.2"/>
	<circle class="st2" cx="351.6" cy="514.1" r="34.2"/>
	<circle class="st2" cx="270.7" cy="514.1" r="34.2"/>
	<circle class="st2" cx="189.7" cy="514.1" r="34.2"/>
	<path class="st2" d="M519.3,161.9H517v47c-1.2,20.5-17.1,35.7-38.3,35.7h0c-21.1,0-36.9-14.3-38.3-35.7v-47H263.8v47
		c-1.2,20.5-17.1,35.7-38.3,35.7h0c-21.1,0-36.9-14.3-38.3-35.7v-47h-6.7c-41,0-74.1,33.2-74.1,74.1v283.8c0,41,33.2,74.1,74.1,74.1
		h338.8c41,0,74.1-33.2,74.1-74.1V236C593.5,195.1,560.3,161.9,519.3,161.9z M560.4,530.6c0,18.6-15.1,33.7-33.7,33.7H173.1
		c-18.6,0-33.7-15.1-33.7-33.7v-249h420.9V530.6z"/>
	<path class="st2" d="M443.9,206.5v-67.3c0-19.2,15.6-34.8,34.8-34.8h0c19.2,0,34.8,15.6,34.8,34.8v67.3c0,19.2-15.6,34.8-34.8,34.8
		h0C459.5,241.3,443.9,225.8,443.9,206.5z"/>
	<path class="st2" d="M190.6,206.5v-67.3c0-19.2,15.6-34.8,34.8-34.8h0c19.2,0,34.8,15.6,34.8,34.8v67.3c0,19.2-15.6,34.8-34.8,34.8
		h0C206.2,241.3,190.6,225.8,190.6,206.5z"/>
</g>
<g transform="translate(0.000000,700.000000) scale(0.100000,-0.100000)" class="st3">
	<path class="st4" d="M5288,4751c-3-14-2-2406,1-2451c1-14,30-16,224-16h224l-1,1241l-1,1240l-222,1C5320,4766,5291,4764,5288,4751z
		"/>
	<path class="st4" d="M2099,4706c-2-2-35-7-72-11c-38-3-114-20-170-36c-519-153-856-609-860-1164c-2-237,33-398,128-587
		c175-349,490-583,880-652c81-15,385-15,450-1c257,55,387,120,533,266c45,45,82,85,82,89s-30,35-67,67c-185,164-254,223-261,223
		c-4-1-32-23-62-51c-59-55-200-128-285-149c-75-19-241-20-331-4c-260,49-479,262-548,534c-78,306-4,638,184,829
		c132,134,286,199,486,205c199,7,389-62,515-187l35-36l30,26c16,13,49,41,73,61c238,197,232,191,216,215c-24,36-156,160-209,195
		c-86,58-227,121-306,136c-14,3-50,10-80,16C2406,4701,2108,4715,2099,4706z"/>
	<path class="st4" d="M3870,4079c-368-44-652-323-745-729c-15-67-16-327-1-380c4-14,9-36,12-49c12-57,48-151,86-221
		c155-291,433-463,748-463c233-1,402,79,505,236c20,31,38,57,39,57s2-54,1-120c-1-114,0-121,20-125c11-3,112-4,225-2l205,2l1,883
		v882h-226h-226l1-130c1-71,0-130-1-130s-13,17-25,38c-70,114-193,201-334,237C4086,4082,3951,4089,3870,4079z M4175,3649
		c295-79,439-430,299-726c-93-196-324-307-534-257c-19,4-37,8-40,9c-18,2-81,33-115,56c-143,97-216,243-216,434
		c-1,298,218,515,501,498C4106,3661,4153,3654,4175,3649z"/>
</g>
</svg>
