<?xml version="1.0" encoding="utf-8"?>
<!-- Generator: Adobe Illustrator 16.0.0, SVG Export Plug-In . SVG Version: 6.00 Build 0)  -->
<!DOCTYPE svg PUBLIC "-//W3C//DTD SVG 1.1//EN" "http://www.w3.org/Graphics/SVG/1.1/DTD/svg11.dtd">
<svg version="1.1" id="Layer_1" xmlns="http://www.w3.org/2000/svg" xmlns:xlink="http://www.w3.org/1999/xlink" x="0px" y="0px"
	 width="20px" height="24px" viewBox="0 0 20 24" enable-background="new 0 0 20 24" xml:space="preserve">
<path fill="#455A64" d="M19.732,5.66H0.268C0.12,5.66,0,5.54,0,5.393V4.321c0-0.148,0.12-0.268,0.268-0.268h19.464
	C19.88,4.054,20,4.173,20,4.321v1.071C20,5.54,19.88,5.66,19.732,5.66z M19.732,12.805H0.268C0.12,12.805,0,12.684,0,12.534v-1.07
	c0-0.147,0.12-0.269,0.268-0.269l0,0h19.464c0.146,0,0.268,0.121,0.268,0.269l0,0v1.07C20,12.684,19.88,12.805,19.732,12.805z
	 M19.732,19.945H0.268C0.12,19.945,0,19.825,0,19.68v-1.072c0-0.148,0.12-0.269,0.268-0.269h19.464c0.146,0,0.268,0.119,0.268,0.269
	v1.072C20,19.825,19.88,19.945,19.732,19.945z"/>
</svg>
