<?xml version="1.0" encoding="utf-8"?>
<!-- Generator: Adobe Illustrator 16.0.0, SVG Export Plug-In . SVG Version: 6.00 Build 0)  -->
<!DOCTYPE svg PUBLIC "-//W3C//DTD SVG 1.1//EN" "http://www.w3.org/Graphics/SVG/1.1/DTD/svg11.dtd">
<svg version="1.1" id="Layer_1" xmlns="http://www.w3.org/2000/svg" xmlns:xlink="http://www.w3.org/1999/xlink" x="0px" y="0px"
	 width="20px" height="20px" viewBox="0 0 20 20" enable-background="new 0 0 20 20" xml:space="preserve">
<path fill="#FFFFFF" d="M5.166,18.75H1.537V7.066h3.629V18.75z M3.35,5.473c-1.16,0-2.102-0.961-2.102-2.121S2.189,1.25,3.35,1.25
	s2.102,0.941,2.102,2.102S4.51,5.473,3.35,5.473z M18.748,18.75h-3.621v-5.688c0-1.355-0.027-3.094-1.887-3.094
	c-1.887,0-2.176,1.473-2.176,2.996v5.785H7.439V7.066h3.48V8.66h0.051c0.484-0.918,1.668-1.887,3.434-1.887
	c3.672,0,4.348,2.418,4.348,5.559v6.418H18.748z"/>
</svg>
