<?xml version="1.0" encoding="utf-8"?>
<!-- Generator: Adobe Illustrator 16.0.0, SVG Export Plug-In . SVG Version: 6.00 Build 0)  -->
<!DOCTYPE svg PUBLIC "-//W3C//DTD SVG 1.1//EN" "http://www.w3.org/Graphics/SVG/1.1/DTD/svg11.dtd">
<svg version="1.1" id="Layer_1" xmlns="http://www.w3.org/2000/svg" xmlns:xlink="http://www.w3.org/1999/xlink" x="0px" y="0px"
	 width="20px" height="20px" viewBox="0 0 20 20" enable-background="new 0 0 20 20" xml:space="preserve">
<path fill="#FFFFFF" d="M18.75,3.125v13.75c0,1.035-0.84,1.875-1.875,1.875h-3.332v-6.922h2.367l0.34-2.641h-2.707V7.5
	c0-0.766,0.211-1.285,1.309-1.285h1.398V3.855c-0.242-0.031-1.07-0.105-2.039-0.105c-2.016,0-3.399,1.23-3.399,3.492v1.949H8.437
	v2.641h2.379v6.918H3.125c-1.035,0-1.875-0.84-1.875-1.875V3.125c0-1.035,0.84-1.875,1.875-1.875h13.75
	C17.91,1.25,18.75,2.09,18.75,3.125z"/>
</svg>
