<?xml version="1.0" encoding="utf-8"?>
<!-- Generator: Adobe Illustrator 16.0.0, SVG Export Plug-In . SVG Version: 6.00 Build 0)  -->
<!DOCTYPE svg PUBLIC "-//W3C//DTD SVG 1.1//EN" "http://www.w3.org/Graphics/SVG/1.1/DTD/svg11.dtd">
<svg version="1.1" id="Layer_1" xmlns="http://www.w3.org/2000/svg" xmlns:xlink="http://www.w3.org/1999/xlink" x="0px" y="0px"
	 width="20px" height="20px" viewBox="0 0 20 20" enable-background="new 0 0 20 20" xml:space="preserve">
<path fill="#FFFFFF" d="M10.002,5.512c-2.484,0-4.488,2.004-4.488,4.488s2.004,4.488,4.488,4.488S14.49,12.484,14.49,10
	S12.486,5.512,10.002,5.512z M10.002,12.918c-1.605,0-2.918-1.309-2.918-2.918s1.309-2.918,2.918-2.918S12.92,8.391,12.92,10
	S11.607,12.918,10.002,12.918z M15.721,5.328c0,0.582-0.469,1.047-1.047,1.047c-0.582,0-1.047-0.469-1.047-1.047
	s0.469-1.047,1.047-1.047S15.721,4.75,15.721,5.328z M18.693,6.391c-0.066-1.402-0.387-2.645-1.414-3.668
	c-1.023-1.023-2.266-1.344-3.668-1.414c-1.445-0.082-5.777-0.082-7.223,0C4.99,1.375,3.748,1.695,2.721,2.719
	S1.377,4.984,1.307,6.387c-0.082,1.445-0.082,5.777,0,7.223c0.066,1.402,0.387,2.645,1.414,3.668s2.266,1.344,3.668,1.414
	c1.445,0.082,5.777,0.082,7.223,0c1.402-0.066,2.645-0.387,3.668-1.414c1.023-1.023,1.344-2.266,1.414-3.668
	C18.775,12.164,18.775,7.836,18.693,6.391z M16.826,15.16c-0.305,0.766-0.895,1.355-1.664,1.664
	c-1.152,0.457-3.887,0.352-5.16,0.352s-4.012,0.102-5.16-0.352C4.076,16.52,3.486,15.93,3.178,15.16
	C2.721,14.008,2.826,11.273,2.826,10S2.725,5.988,3.178,4.84c0.305-0.766,0.895-1.355,1.664-1.664
	c1.152-0.457,3.887-0.352,5.16-0.352s4.012-0.102,5.16,0.352c0.766,0.305,1.355,0.895,1.664,1.664
	c0.457,1.152,0.352,3.887,0.352,5.16S17.283,14.012,16.826,15.16z"/>
</svg>
