<?xml version="1.0" encoding="utf-8"?>
<!-- Generator: Adobe Illustrator 16.0.0, SVG Export Plug-In . SVG Version: 6.00 Build 0)  -->
<!DOCTYPE svg PUBLIC "-//W3C//DTD SVG 1.1//EN" "http://www.w3.org/Graphics/SVG/1.1/DTD/svg11.dtd">
<svg version="1.1" id="Layer_1" xmlns="http://www.w3.org/2000/svg" xmlns:xlink="http://www.w3.org/1999/xlink" x="0px" y="0px"
	 width="20px" height="20px" viewBox="0 0 20 20" enable-background="new 0 0 20 20" xml:space="preserve">
<path fill="#FFFFFF" d="M17.336,6.237c0.013,0.164,0.013,0.329,0.013,0.493c0,5.004-3.81,10.77-10.77,10.77
	c-2.145,0-4.138-0.62-5.813-1.699c0.305,0.036,0.597,0.047,0.915,0.047c1.769,0,3.398-0.597,4.698-1.617
	c-1.663-0.035-3.058-1.125-3.539-2.625c0.234,0.036,0.469,0.059,0.715,0.059c0.34,0,0.679-0.046,0.997-0.129
	C2.816,11.183,1.516,9.66,1.516,7.82V7.773c0.503,0.281,1.089,0.457,1.71,0.48c-1.02-0.68-1.687-1.84-1.687-3.152
	c0-0.704,0.188-1.348,0.516-1.911c1.863,2.297,4.665,3.797,7.805,3.961C9.801,6.871,9.766,6.579,9.766,6.284
	c0-2.084,1.688-3.784,3.786-3.784c1.089,0,2.074,0.457,2.765,1.195c0.856-0.164,1.676-0.48,2.402-0.914
	c-0.281,0.879-0.878,1.617-1.663,2.086c0.762-0.081,1.499-0.292,2.18-0.586C18.719,5.031,18.075,5.699,17.336,6.237L17.336,6.237z"
	/>
</svg>
